<svg width="159" height="64" viewBox="0 0 159 64" fill="none" xmlns="http://www.w3.org/2000/svg">
<mask id="mask0_578_22307" style="mask-type:alpha" maskUnits="userSpaceOnUse" x="0" y="0" width="159" height="64">
<rect x="0.5" width="158" height="64" fill="#D9D9D9"/>
</mask>
<g mask="url(#mask0_578_22307)">
</g>
<g clip-path="url(#clip0_578_22307)">
<path fill-rule="evenodd" clip-rule="evenodd" d="M95.219 43.2823C87.4739 48.9741 76.2392 52.0003 66.5703 52.0003C53.0162 52.0003 40.8114 47.0133 31.5755 38.7098C30.8509 38.059 31.4964 37.1677 32.3708 37.6734C42.3354 43.4481 54.661 46.9221 67.3864 46.9221C75.9727 46.9221 85.4127 45.1478 94.0947 41.479C95.4022 40.9277 96.5015 42.3371 95.219 43.2823Z" fill="#8E8E8E"/>
<path fill-rule="evenodd" clip-rule="evenodd" d="M98.4419 39.6176C97.4509 38.3532 91.8919 39.0206 89.3934 39.3191C88.6356 39.4103 88.519 38.7511 89.2019 38.2744C93.6366 35.1736 100.903 36.069 101.748 37.1054C102.598 38.1542 101.523 45.4047 97.3676 48.8662C96.7264 49.3968 96.1184 49.1149 96.4057 48.4102C97.3426 46.0845 99.433 40.8819 98.4419 39.6176Z" fill="#8E8E8E"/>
<path fill-rule="evenodd" clip-rule="evenodd" d="M89.5685 16.3693V13.3555C89.5685 12.8954 89.9182 12.5928 90.3346 12.5928H103.901C104.334 12.5928 104.684 12.9037 104.684 13.3514V15.9341C104.684 16.3693 104.313 16.9331 103.664 17.8327L96.639 27.8192C99.2457 27.757 102.007 28.1467 104.376 29.4733C104.909 29.7718 105.055 30.2153 105.096 30.6506V33.8675C105.096 34.3111 104.609 34.821 104.097 34.5557C99.9203 32.3793 94.3821 32.1388 89.7642 34.5847C89.2936 34.8334 88.7981 34.3277 88.7981 33.8841V30.8289C88.7981 30.3397 88.8064 29.5023 89.302 28.7561L97.4427 17.128H90.3555C89.9224 17.128 89.5726 16.8212 89.5726 16.3693H89.5685Z" fill="#8E8E8E"/>
<path fill-rule="evenodd" clip-rule="evenodd" d="M40.0912 35.1856H35.9646C35.5732 35.1607 35.2567 34.8664 35.2275 34.4891V13.4092C35.2275 12.9864 35.5856 12.6506 36.027 12.6506H39.8705C40.2744 12.6713 40.595 12.974 40.62 13.3595V16.1121H40.6991C41.6985 13.4507 43.589 12.207 46.1291 12.207C48.6691 12.207 50.3264 13.4507 51.484 16.1121C52.4876 13.4507 54.757 12.207 57.1846 12.207C58.9169 12.207 60.8074 12.9159 61.9608 14.5161C63.2683 16.2904 63.0018 18.8647 63.0018 21.1282V34.427C63.0018 34.8456 62.6437 35.1856 62.2023 35.1856H58.0799C57.6635 35.1607 57.3387 34.8332 57.3387 34.427V23.2507C57.3387 22.3635 57.4137 20.1457 57.2221 19.3041C56.914 17.8822 55.9896 17.4843 54.7945 17.4843C53.7909 17.4843 52.7541 18.1517 52.3293 19.2129C51.9046 20.2783 51.9463 22.0526 51.9463 23.2507V34.427C51.9463 34.8456 51.5923 35.1856 51.1509 35.1856H47.0285C46.6121 35.1607 46.2873 34.8332 46.2873 34.427V23.2507C46.2873 20.9002 46.6662 17.4387 43.743 17.4387C40.8199 17.4387 40.8907 20.809 40.8907 23.2507V34.427C40.8907 34.8456 40.5326 35.1856 40.0912 35.1856Z" fill="#8E8E8E"/>
<path fill-rule="evenodd" clip-rule="evenodd" d="M116.36 12.2031C122.485 12.2031 125.796 17.4389 125.796 24.0966C125.796 30.7543 122.136 35.6335 116.36 35.6335C110.585 35.6335 107.078 30.3978 107.078 23.8769C107.078 17.356 110.389 12.2031 116.36 12.2031ZM116.398 16.5062C113.354 16.5062 113.162 20.6309 113.162 23.2053C113.162 25.7797 113.125 31.2807 116.36 31.2807C119.596 31.2807 119.712 26.8451 119.712 24.138C119.712 22.3638 119.637 20.233 119.096 18.5458C118.634 17.0824 117.709 16.5062 116.398 16.5062Z" fill="#8E8E8E"/>
<path fill-rule="evenodd" clip-rule="evenodd" d="M133.741 35.1856H129.631C129.219 35.1607 128.89 34.8332 128.89 34.4269L128.881 13.3346C128.915 12.9491 129.26 12.6464 129.673 12.6464H133.499C133.862 12.663 134.157 12.9076 134.232 13.2351V16.4603H134.311C135.469 13.575 137.085 12.1987 139.933 12.1987C141.782 12.1987 143.593 12.862 144.746 14.686C145.825 16.3733 145.825 19.2129 145.825 21.2525V34.5223C145.779 34.8954 145.442 35.1856 145.034 35.1856H140.899C140.516 35.1607 140.208 34.8829 140.166 34.5223V23.0765C140.166 20.7675 140.437 17.3972 137.584 17.3972C136.581 17.3972 135.656 18.0646 135.194 19.0844C134.615 20.3737 134.54 21.6588 134.54 23.0807V34.4352C134.532 34.8539 134.178 35.1939 133.737 35.1939L133.741 35.1856Z" fill="#8E8E8E"/>
<path fill-rule="evenodd" clip-rule="evenodd" d="M78.7587 25.1164C78.7587 26.7165 78.7962 28.0514 77.9842 29.4733C77.3262 30.6299 76.2852 31.3388 75.1276 31.3388C73.5453 31.3388 72.6167 30.1366 72.6167 28.3582C72.6167 24.8594 75.7689 24.2251 78.7545 24.2251V25.1122L78.7587 25.1164ZM82.9186 35.1319C82.6479 35.3765 82.2523 35.3931 81.9442 35.2273C80.5742 34.0914 80.3285 33.5691 79.579 32.4912C77.3137 34.7878 75.7106 35.476 72.7749 35.476C69.3021 35.476 66.5996 33.3411 66.5996 29.0712C66.5996 25.7382 68.4151 23.4665 71.001 22.3555C73.2413 21.3771 76.3685 21.1989 78.7628 20.9336V20.3988C78.7628 19.4204 78.8378 18.2639 78.259 17.4182C77.7551 16.6637 76.7932 16.3486 75.9438 16.3486C74.3698 16.3486 72.9706 17.1529 72.625 18.8152C72.5542 19.1842 72.2836 19.5531 71.9088 19.5697L67.9071 19.1386C67.5698 19.0639 67.1951 18.7945 67.2908 18.2804C68.2111 13.4509 72.5917 11.9917 76.5184 11.9917C78.5255 11.9917 81.153 12.5265 82.7354 14.0354C84.7424 15.9009 84.5509 18.3924 84.5509 21.1077V27.5083C84.5509 29.436 85.3546 30.2775 86.1082 31.3139C86.3706 31.687 86.433 32.1306 86.0958 32.4042C85.2546 33.1089 83.7556 34.4023 82.9311 35.1319L82.9186 35.1236V35.1319Z" fill="#8E8E8E"/>
<path fill-rule="evenodd" clip-rule="evenodd" d="M24.6591 25.1164C24.6591 26.7166 24.6965 28.0514 23.8887 29.4733C23.235 30.6299 22.1898 31.3388 21.0322 31.3388C19.4498 31.3388 18.5212 30.1366 18.5212 28.3582C18.5212 24.8594 21.6734 24.2251 24.6591 24.2251V25.1122V25.1164ZM28.819 35.1319C28.5483 35.3765 28.1527 35.3931 27.8446 35.2273C26.4746 34.0914 26.2289 33.5691 25.4794 32.4912C23.2141 34.7879 21.611 35.476 18.6753 35.476C15.2025 35.476 12.5 33.3411 12.5 29.0712C12.5 25.7382 14.3155 23.4665 16.9014 22.3555C19.1417 21.3771 22.2689 21.1989 24.6591 20.9336V20.3988C24.6591 19.4205 24.7382 18.2639 24.1594 17.4182C23.6555 16.6637 22.6936 16.3486 21.8442 16.3486C20.2701 16.3486 18.871 17.1529 18.5254 18.8152C18.4546 19.1842 18.1839 19.5531 17.8092 19.5697L13.8117 19.1386C13.4744 19.0639 13.0996 18.7945 13.1954 18.2804C14.1115 13.4592 18.4921 12 22.423 12C24.43 12 27.0534 12.5348 28.6399 14.0437C30.647 15.9092 30.4554 18.4007 30.4554 21.116V27.5166C30.4554 29.4443 31.2591 30.2858 32.0128 31.3222C32.2751 31.6953 32.3376 32.1389 32.0003 32.4125C31.1592 33.1172 29.6601 34.4106 28.8356 35.1402L28.8273 35.1319H28.819Z" fill="#8E8E8E"/>
</g>
<defs>
<clipPath id="clip0_578_22307">
<rect width="133.333" height="40" fill="white" transform="translate(12.5 12)"/>
</clipPath>
</defs>
</svg>
