<svg width="58" height="64" viewBox="0 0 58 64" fill="none" xmlns="http://www.w3.org/2000/svg">
<mask id="mask0_578_22371" style="mask-type:alpha" maskUnits="userSpaceOnUse" x="0" y="0" width="58" height="64">
<rect x="0.5" width="57" height="64" fill="#D9D9D9"/>
</mask>
<g mask="url(#mask0_578_22371)">
<path d="M40.0601 33.2506C40.1169 39.304 45.4407 41.318 45.5 41.3435C45.4549 41.4859 44.6492 44.2137 42.695 47.033C41.0063 49.4694 39.2532 51.8969 36.4907 51.9478C33.7772 51.9974 32.9045 50.36 29.8018 50.36C26.699 50.36 25.7309 51.8981 23.1618 51.9974C20.496 52.0966 18.4657 49.3625 16.7629 46.935C13.2837 41.9681 10.623 32.902 14.195 26.7811C15.9688 23.7417 19.1399 21.8168 22.5817 21.7672C25.1998 21.7175 27.6696 23.5051 29.2707 23.5051C30.8717 23.5051 33.8726 21.3549 37.0295 21.6717C38.3508 21.7264 42.0608 22.1985 44.4417 25.6399C44.2496 25.757 40.0163 28.1895 40.0614 33.2506M34.9619 18.3868C36.3773 16.6959 37.3299 14.3422 37.0695 12C35.0289 12.0814 32.5629 13.3422 31.0998 15.0318C29.7889 16.528 28.6403 18.9236 28.9497 21.2188C31.2236 21.3918 33.5465 20.0789 34.9619 18.3868Z" fill="#8E8E8E"/>
</g>
</svg>
