<svg width="167" height="24" viewBox="0 0 167 24" fill="none" xmlns="http://www.w3.org/2000/svg">
<g clip-path="url(#clip0_2558_32100)">
<path d="M119.557 10.098L117.307 15.8298H117.239L114.891 10.098H112.768L116.286 18.1106L114.276 22.5669H116.339L121.763 10.098H119.557ZM103.652 5.34156H101.687V18.5607H103.652V5.34156ZM96.255 5.34156H91.5285V18.5607H93.5091V13.5566H96.2625C98.5807 13.6392 100.516 11.8236 100.599 9.50536C100.599 9.49036 100.599 9.46785 100.599 9.45285C100.554 7.13462 98.6332 5.28905 96.3075 5.34156C96.2925 5.34156 96.27 5.34156 96.255 5.34156ZM96.3075 11.7111H93.5091V7.20965H96.315C97.5604 7.20965 98.5657 8.21496 98.5657 9.46035C98.5657 10.7057 97.5604 11.7111 96.315 11.7111H96.3075ZM108.499 9.81296C107.028 9.73043 105.648 10.5257 104.98 11.8386L106.736 12.5888C107.088 11.9361 107.801 11.561 108.536 11.6285C109.572 11.5235 110.502 12.2812 110.607 13.3241C110.607 13.3241 110.607 13.3241 110.607 13.3316V13.4666C109.977 13.129 109.272 12.9489 108.559 12.9489C106.676 12.9489 104.755 13.9843 104.755 15.9499C104.755 17.7204 106.293 18.8608 108.034 18.8608C109.046 18.9283 110.007 18.4257 110.539 17.5704H110.614V18.5907H112.535V13.5041C112.535 11.1559 110.78 9.85047 108.514 9.85047L108.499 9.81296ZM108.266 17.0602C107.621 17.0602 106.721 16.7301 106.721 15.9349C106.721 14.9146 107.839 14.5244 108.814 14.5244C109.444 14.5094 110.067 14.6595 110.614 14.9671C110.464 16.1524 109.459 17.0452 108.266 17.0602ZM37.129 18.8458C33.2428 18.8608 30.0693 15.7473 30.0093 11.8611C30.0693 7.97489 33.2428 4.86141 37.129 4.87642C38.9296 4.84641 40.6626 5.54413 41.938 6.80452L40.5801 8.14744C39.6573 7.24716 38.4194 6.7445 37.129 6.752C34.3231 6.752 32.0499 9.02521 32.0499 11.8311C32.0499 14.637 34.3231 16.9102 37.129 16.9102C38.4569 16.9627 39.7398 16.4525 40.6701 15.5072C41.2778 14.847 41.6454 13.9993 41.7129 13.1065H37.129V11.2534H43.581C43.6485 11.6435 43.6861 12.0487 43.6785 12.4463C43.7461 14.1043 43.1459 15.7248 42.0205 16.9477C40.7376 18.2456 38.9521 18.9358 37.129 18.8458ZM53.6567 14.3444C53.7542 16.8051 51.8486 18.8758 49.3878 18.9808C46.9271 19.0784 44.8564 17.1728 44.7514 14.712C44.7514 14.592 44.7514 14.4719 44.7514 14.3444C44.6539 11.8836 46.5594 9.81296 49.0202 9.70793C51.481 9.6104 53.5516 11.516 53.6567 13.9768C53.6567 14.0968 53.6567 14.2168 53.6567 14.3444ZM51.7061 14.3444C51.8336 12.9639 50.8208 11.7336 49.4403 11.606C48.0599 11.4785 46.8295 12.4913 46.702 13.8717C46.687 14.0293 46.687 14.1868 46.702 14.3444C46.5745 15.7248 47.5873 16.9552 48.9677 17.0827C50.3481 17.2103 51.5785 16.1975 51.7061 14.817C51.7211 14.6595 51.7211 14.5019 51.7061 14.3444ZM63.6348 14.3444C63.6348 16.8051 61.6467 18.7933 59.1859 18.7933C56.7251 18.7933 54.737 16.8051 54.737 14.3444C54.737 11.8836 56.7251 9.89549 59.1859 9.89549C61.6467 9.89549 63.6348 11.8836 63.6348 14.3444ZM61.6917 14.3444C61.8192 12.9639 60.8064 11.7336 59.426 11.606C58.0455 11.4785 56.8152 12.4913 56.6876 13.8717C56.6726 14.0293 56.6726 14.1868 56.6876 14.3444C56.5601 15.7248 57.5729 16.9552 58.9533 17.0827C60.3338 17.2103 61.5641 16.1975 61.6917 14.817C61.7067 14.6595 61.7067 14.5019 61.6917 14.3444ZM73.3728 10.1206V18.2006C73.3728 21.5166 71.3997 22.882 69.074 22.882C67.3334 22.897 65.7504 21.8617 65.0677 20.2562L66.7708 19.506C67.1309 20.4438 68.0162 21.074 69.0215 21.104C70.5219 21.104 71.4372 20.1812 71.4372 18.4632V17.818H71.3622C70.7695 18.4857 69.9142 18.8533 69.0215 18.8458C66.5382 18.8458 64.5201 16.8277 64.5201 14.3444C64.5201 11.8611 66.5382 9.84297 69.0215 9.84297C69.9217 9.82046 70.7845 10.1881 71.3922 10.8483H71.4672V10.098H73.3728V10.1206ZM71.6248 14.3669C71.7373 12.9639 70.6945 11.7411 69.2991 11.6285C69.269 11.6285 69.2465 11.6285 69.2165 11.6285C67.7761 11.6735 66.6432 12.8814 66.6957 14.3219C66.6957 14.3369 66.6957 14.3519 66.6957 14.3744C66.6282 15.7998 67.7311 17.0152 69.164 17.0827C69.179 17.0827 69.2015 17.0827 69.2165 17.0827C70.6045 17.0302 71.6848 15.8598 71.6323 14.4719C71.6323 14.4419 71.6323 14.4044 71.6323 14.3744L71.6248 14.3669ZM76.8464 5.35657V18.5682H74.8658V5.35657H76.8464ZM84.6489 15.8298L86.1943 16.8502C85.3541 18.103 83.9511 18.8533 82.4432 18.8458C80.0349 18.8833 78.0543 16.9552 78.0243 14.5469C78.0243 14.4794 78.0243 14.4119 78.0243 14.3444C77.8292 12.0637 79.5172 10.0605 81.7905 9.85797C83.7111 9.69292 85.4891 10.8708 86.0893 12.7089L86.2919 13.2265L80.29 15.7098C80.6726 16.5726 81.5429 17.1127 82.4807 17.0752C83.366 17.0602 84.1912 16.5876 84.6489 15.8298ZM79.9149 14.2093L83.9511 12.5438C83.6285 11.9211 82.9683 11.546 82.2706 11.591C80.9052 11.651 79.8549 12.8064 79.9149 14.1643C79.9149 14.1793 79.9149 14.1943 79.9149 14.2093Z" fill="white"/>
<path d="M10.158 11.4634L0.0898438 22.0117C0.502473 23.4596 2.01044 24.3074 3.4584 23.8948C3.67596 23.8347 3.88603 23.7447 4.08859 23.6322L15.4171 17.1802L10.158 11.4634Z" fill="#EA4335"/>
<path d="M20.3388 9.67062L15.4398 6.86475L9.92554 11.7038L15.4623 17.1655L20.3238 14.3896C21.6292 13.7069 22.1318 12.1014 21.4491 10.796C21.1941 10.3158 20.8039 9.9257 20.3238 9.67062H20.3388Z" fill="#FBBC04"/>
<path d="M0.0900281 1.99561C0.0300094 2.22068 0 2.45325 0 2.68582V21.3216C0 21.5542 0.0300094 21.7868 0.0900281 22.0119L10.5033 11.7336L0.0900281 1.99561Z" fill="#4285F4"/>
<path d="M10.233 12.0038L15.4396 6.86464L4.1261 0.38262C3.69847 0.135042 3.21832 0 2.72317 0C1.50028 0 0.419947 0.810253 0.0898438 1.98812L10.233 12.0038Z" fill="#34A853"/>
</g>
<path fill-rule="evenodd" clip-rule="evenodd" d="M136.404 15.8725L134.838 14.9331C134.177 14.5361 133.349 14.5361 132.687 14.9331L131.122 15.8725L131.537 14.1022C131.713 13.354 131.457 12.5706 130.873 12.0675L129.488 10.8747L131.308 10.7213C132.077 10.6564 132.747 10.1735 133.049 9.46665L133.763 7.79132L134.477 9.46665C134.778 10.1735 135.448 10.6564 136.218 10.7213L138.037 10.8747L136.653 12.0675C136.069 12.5706 135.813 13.354 135.988 14.1022L136.404 15.8725ZM134.121 16.1144C133.901 15.9821 133.625 15.9821 133.404 16.1144L130.431 17.8988C129.906 18.2142 129.257 17.7457 129.397 17.1514L130.186 13.7887C130.244 13.5393 130.159 13.2781 129.965 13.1104L127.337 10.847C126.873 10.4473 127.121 9.68962 127.732 9.63804L131.191 9.34639C131.447 9.32476 131.671 9.16378 131.771 8.92818L133.124 5.75418C133.363 5.19327 134.163 5.19327 134.402 5.75418L135.755 8.92818C135.855 9.16378 136.078 9.32476 136.335 9.34639L139.793 9.63804C140.405 9.68962 140.653 10.4473 140.189 10.847L137.561 13.1104C137.367 13.2781 137.281 13.5393 137.34 13.7887L138.129 17.1514C138.268 17.7457 137.62 18.2142 137.095 17.8988L134.121 16.1144Z" fill="#F4C000"/>
<path d="M149.971 17.5V15.42H144.451V13.788L149.699 6.3H152.019V13.644H153.491V15.42H152.019V17.5H149.971ZM146.643 13.644H150.099V8.556L146.643 13.644ZM155.933 17.612C155.56 17.612 155.25 17.4947 155.005 17.26C154.77 17.0253 154.653 16.7427 154.653 16.412C154.653 16.0707 154.77 15.7827 155.005 15.548C155.25 15.3133 155.56 15.196 155.933 15.196C156.306 15.196 156.61 15.3133 156.845 15.548C157.09 15.7827 157.213 16.0707 157.213 16.412C157.213 16.7427 157.09 17.0253 156.845 17.26C156.61 17.4947 156.306 17.612 155.933 17.612ZM159.1 17.5L163.324 8.044H157.804V6.3H165.436V7.756L161.228 17.5H159.1Z" fill="white"/>
<defs>
<clipPath id="clip0_2558_32100">
<rect width="121.763" height="24" fill="white"/>
</clipPath>
</defs>
</svg>
