<svg width="65" height="64" viewBox="0 0 65 64" fill="none" xmlns="http://www.w3.org/2000/svg">
<mask id="mask0_578_22320" style="mask-type:alpha" maskUnits="userSpaceOnUse" x="0" y="0" width="65" height="64">
<rect x="0.5" width="64" height="64" fill="#D9D9D9"/>
</mask>
<g mask="url(#mask0_578_22320)">
</g>
<g clip-path="url(#clip0_578_22320)">
<path fill-rule="evenodd" clip-rule="evenodd" d="M36.0597 16.1182C36.3193 16.1182 36.544 15.9228 36.544 15.6648C36.544 15.4068 36.3168 15.2114 36.0597 15.2114C35.8026 15.2114 35.6079 15.4068 35.6079 15.6648C35.6079 15.9228 35.8026 16.1182 36.0597 16.1182Z" fill="#8E8E8E"/>
<path fill-rule="evenodd" clip-rule="evenodd" d="M29.8266 15.3093C30.0538 15.3093 30.2135 15.1139 30.2135 14.921C30.2135 14.693 30.0513 14.5327 29.8266 14.5327C29.602 14.5327 29.4397 14.6955 29.4397 14.921C29.4397 15.1164 29.602 15.3093 29.8266 15.3093Z" fill="#8E8E8E"/>
<path fill-rule="evenodd" clip-rule="evenodd" d="M25.1434 24.9031L24.9487 24.7077C25.4979 24.1892 26.0471 23.4102 26.1444 22.9567C26.2093 22.5033 26.8559 22.601 26.7261 23.0544C26.5638 23.6707 25.8549 24.3846 25.1434 24.9031Z" fill="#8E8E8E"/>
<path fill-rule="evenodd" clip-rule="evenodd" d="M21.1694 15.4712C20.2009 15.892 20.0711 16.8965 20.75 17.5128C21.5563 18.2267 22.9467 17.6105 22.8169 16.4757C23.9153 16.5408 24.6267 15.3735 24.4645 14.5944C24.9487 14.1736 24.9812 13.2643 24.3996 12.9086C23.753 12.5203 23.1714 12.648 22.7845 13.3945C21.7835 13.3294 20.8149 14.1085 21.1694 15.4687L20.7176 15.2733C20.1035 13.9431 21.1694 12.6155 22.4949 12.9386C22.7845 12.2898 23.7555 11.6085 24.8539 12.2573C25.6926 12.7758 25.8873 14.136 24.9837 14.7848C25.4031 16.0173 24.5319 17.0544 23.2388 16.9241C23.0765 18.5448 21.5913 18.7402 20.5903 17.9937C20.0411 17.5403 19.8139 16.9567 19.7191 16.5033C19.5893 16.0173 19.5893 15.5964 19.1375 15.1105C18.783 14.7548 18.1365 14.7548 18.1365 14.7548C18.1365 13.5874 17.0706 12.5178 15.7151 13.0363C15.2308 12.6155 14.6167 12.5829 14.1974 13.1014C13.9702 13.392 13.8104 14.1711 14.5843 14.5268C14.5518 15.5964 15.3606 16.2778 16.5538 16.1801C16.5863 16.7312 17.2004 17.2823 17.782 17.3474L17.7495 17.638C17.1679 17.5729 16.8459 17.7683 16.4565 18.2543C15.0686 18.1891 14.0975 18.8379 14.13 19.8424C13.1614 20.0053 12.9667 21.0423 13.5159 21.5934C14.0651 22.1445 14.8714 21.9166 15.1634 21.2703C16.1644 21.4657 17.0381 20.7517 17.0681 19.9401C17.9717 19.9401 18.3936 19.5518 18.5533 18.7077L18.8753 18.7402C18.9727 19.647 18.5533 20.5238 17.455 20.4261C17.4225 21.5283 16.3891 22.112 15.3881 21.7538C14.9363 22.628 13.8704 22.9537 12.9967 22.1095C12.1255 21.3003 12.4475 19.9051 13.5783 19.5493C13.5783 18.4797 14.3846 17.4752 15.9048 17.8635C15.9048 17.8635 16.0995 17.3775 16.5838 17.3449C16.2618 17.2147 16.0346 17.0544 15.9697 16.6961C14.8064 16.9542 13.8379 15.887 14.0975 14.8174C13.0616 14.2713 13.0291 13.2342 13.5458 12.618C14.095 11.9692 15.0012 11.8389 15.775 12.5203C17.1629 11.7738 18.6831 12.7157 18.5858 14.2713C19.5543 14.2062 20.136 15.0178 20.0061 15.892C20.1684 15.5038 20.3606 15.3409 20.7176 15.2758L21.1694 15.4712Z" fill="#8E8E8E"/>
<path fill-rule="evenodd" clip-rule="evenodd" d="M23.5284 13.5908L23.7556 13.7536C23.3037 14.7256 22.5274 15.6975 21.8509 16.2812L21.5913 16.0532C22.0756 15.2742 23.0766 13.9791 23.5284 13.5908Z" fill="#8E8E8E"/>
<path fill-rule="evenodd" clip-rule="evenodd" d="M16.8734 18.7759L17.0032 19.0339C16.4541 19.585 15.4206 20.3641 14.839 20.6546L14.6443 20.3966C15.161 19.813 16.1945 19.0665 16.8734 18.7759Z" fill="#8E8E8E"/>
<path fill-rule="evenodd" clip-rule="evenodd" d="M18.199 15.9903L17.9394 16.3134C17.1955 15.8274 15.7427 14.5298 15.4207 14.0439L15.6478 13.8159C16.3592 14.1716 17.7147 15.4041 18.199 15.9878V15.9903Z" fill="#8E8E8E"/>
<path fill-rule="evenodd" clip-rule="evenodd" d="M16.8411 28.3702C16.9385 28.791 16.8411 29.277 17.228 29.7304C17.3578 29.8933 18.0992 30.8652 18.6484 31.3512C17.9045 31.6417 16.4517 32.258 15.4182 32.3882C15.1911 32.4208 14.9664 32.5511 14.7717 32.6788C14.6419 32.9068 14.5146 33.2951 14.4497 33.7485C14.4172 34.0716 14.4172 34.4298 14.4172 34.7855C14.4172 35.1087 14.5795 36.1458 14.934 36.8271C15.2884 37.5085 15.6454 37.8316 16.0648 38.027C16.1621 37.9945 16.3543 37.9619 16.6464 37.9619C17.4227 37.9293 18.0343 38.3827 18.3264 38.7409C18.4237 38.9038 18.6484 38.9363 18.908 38.9363C19.5545 38.9363 20.2635 38.7084 20.91 38.4504C21.0723 38.3527 21.4592 38.0621 21.8461 37.769C22.2655 37.4459 24.4622 35.5646 25.4307 35.1112C25.9474 35.3717 26.7862 35.7274 27.6599 35.7274C27.6923 35.7274 27.8546 35.76 28.0468 35.6949C28.3064 35.6297 28.6609 35.532 29.1127 35.4368C29.889 35.274 30.7927 35.1463 31.0822 35.1463C31.7937 35.1788 33.893 35.2114 34.4097 35.2114C34.9265 35.2114 35.6704 35.1788 35.9599 35.1463C36.4117 34.9834 37.4127 34.7254 38.3513 34.3046C39.2874 33.8837 41.2595 32.4884 41.5815 32.1653C41.7437 32.035 41.9035 31.8747 42.0009 31.7445C42.0333 31.6793 42.0658 31.6468 42.0658 31.6142C42.0658 31.5816 42.0333 30.2214 42.0333 30.2214C42.0333 30.2214 42.5176 29.7029 42.7123 29.5075V29.4424C42.6149 29.1818 42.55 28.3401 42.5825 27.4985L42.1307 27.2705C42.0982 28.3076 41.7113 29.2144 41.3543 29.7981C40.6429 29.8958 39.255 30.3166 38.7707 30.9003L39.0603 30.9654C39.5121 30.7049 39.9964 30.5446 40.578 30.5446C41.0623 30.5446 41.2894 30.6748 41.2894 30.8051C41.2894 30.9028 41.1921 31.1282 41.1596 31.2259C41.1272 31.291 41.0947 31.4213 40.9974 31.4864C40.3184 32.2329 39.577 32.8467 38.6384 33.3652C38.0243 33.7209 37.4102 33.9489 36.5066 34.2394C36.217 34.3046 35.8276 34.4023 35.603 34.5C35.2485 34.5 33.4387 34.4348 32.3728 34.4348C31.3069 34.4348 29.1102 34.5977 28.4312 34.758C28.1092 34.8557 28.0118 34.9859 27.6549 34.9859C26.9759 34.9859 26.0723 34.6302 25.5231 34.3697C25.4257 34.3697 25.2335 34.4674 25.0388 34.5651C24.6519 34.7605 23.7782 35.9904 23.2615 35.6022C23.0019 36.1533 21.8736 36.6392 21.5166 37.1903C21.549 36.9323 22.0009 35.0511 22.0333 34.6628C22.0333 34.5977 22.0658 34.5325 22.0009 34.4674C21.6139 33.786 20.4507 33.3652 19.8042 33.2349C19.6419 33.2024 19.5445 33.1698 19.4172 33.1372L18.3838 32.8467L17.4477 33.1372L18.546 33.3326L17.1581 34.272C17.4177 34.1743 18.903 33.7535 19.0004 33.7209C19.1302 33.6883 19.2899 33.6558 19.4522 33.7209C19.6793 33.786 20.2285 33.9163 20.583 34.0441C20.7777 34.1092 21.0997 34.4649 21.1971 34.6603C21.2295 34.758 21.2295 34.9208 21.262 35.3091C21.262 35.537 21.2295 35.8928 21.1646 36.1508C21.0024 36.8321 20.6803 37.3507 20.583 37.5436C20.4532 37.8041 20.2934 37.8993 20.0987 37.9644C19.8091 38.1272 19.4197 38.1924 19.0328 38.2249C18.7432 38.2249 18.5485 38.1924 18.4187 38.0295C18.0643 37.511 17.1257 37.025 16.1896 37.2204C15.608 36.8647 15.0263 35.7299 15.0263 34.8206C15.0263 34.2695 15.2834 33.3953 15.4457 32.9719C16.3818 32.8417 18.2889 32.1302 19.1926 31.7069C19.3873 31.7069 19.9365 31.5115 20.4532 31.5115C21.6813 31.5115 22.907 32.5811 23.6509 33.3276C23.7807 33.1322 24.0054 32.8091 24.6519 32.8091C25.5231 32.8091 26.0398 33.6182 26.267 34.4298L26.7188 34.1067C26.6539 33.6533 26.3968 33.1347 26.0398 32.7465C25.7502 32.4559 25.1686 32.1954 24.7143 32.1954C24.4247 32.1954 24.1651 32.2605 23.9704 32.2605C23.3563 32.2605 23.0992 31.9699 22.6149 31.6443C22.1307 31.3211 21.1946 30.8026 20.5156 30.8026C20.0962 30.8026 19.9015 30.9654 19.547 30.9654C19.0303 30.9654 18.8356 30.77 18.6109 30.4469C18.4811 30.3166 17.9644 29.8632 17.8346 29.6678C17.7373 29.5375 17.6075 29.1167 17.545 28.8887L16.8336 28.3702H16.8411Z" fill="#8E8E8E"/>
<path fill-rule="evenodd" clip-rule="evenodd" d="M17.5524 28.8887C17.7147 29.0515 17.842 29.2118 18.0367 29.3747C18.2314 29.5049 18.4561 29.6352 18.6508 29.7629C18.9728 29.9258 19.3298 30.1187 19.6518 30.2489C19.9738 30.314 20.3632 30.3466 20.7177 30.3466C21.2344 30.3466 21.8485 30.2489 22.3652 30.5094C22.7197 30.6397 22.7197 31.028 23.0117 31.1257C23.4311 31.2885 24.5944 31.3211 25.2409 31.3211C26.534 31.3211 27.9219 31.1582 28.7606 30.9654L28.3737 30.5119C27.7921 30.6096 26.1121 30.8025 25.3383 30.8025C24.2724 30.8025 23.2389 30.6071 23.2389 30.1863C23.2389 29.8631 23.5609 29.4072 24.2074 29.4072C24.8864 29.4072 25.9199 29.8281 26.1121 29.8932C26.3068 29.9258 26.3717 29.9258 26.499 29.8606L26.8859 29.6652C26.3692 29.4047 24.527 28.791 23.8829 28.791C23.5934 28.791 23.3987 28.8236 23.204 29.0816C22.9768 29.4047 22.3003 29.6978 21.2669 29.6978C20.6852 29.6978 19.8465 29.5676 19.6842 29.5024C19.3622 29.3722 18.7481 29.0165 18.3587 28.7234C17.842 28.3677 17.3902 27.9443 17.0981 27.4583C17.0008 27.3281 16.9359 27.1678 16.9359 27.0049C16.9359 26.8747 17.0008 26.777 17.0008 26.6818C17.0981 26.812 17.1955 26.9097 17.3228 27.0049C17.872 27.556 18.6782 27.9443 19.5195 28.1071C19.7791 28.1723 19.9713 28.2048 20.2309 28.2048C20.5854 28.2048 20.9099 28.0094 21.1346 27.8166L20.7801 27.4283C20.6827 27.4608 20.4581 27.4608 20.3283 27.4608C19.1001 27.4608 17.5499 26.6818 17.1955 25.7424C17.163 25.6447 17.0981 25.6121 17.163 25.5144C17.1955 25.4168 17.2279 25.2564 17.2604 25.0936C17.3253 25.1587 17.4875 25.289 17.6473 25.4168C18.0991 25.7073 18.9703 26.0981 19.165 26.2259C19.5844 26.0956 19.9089 25.9353 20.166 25.805C20.4256 25.6748 20.7801 25.5445 21.167 25.5445C22.0707 25.5445 23.1041 26.063 24.0751 26.549L24.7217 26.2885C23.8505 25.6723 22.0082 24.8306 20.9748 24.8306C20.3607 24.8306 19.7791 25.284 19.3597 25.284C18.8754 25.284 17.4551 24.5701 17.4551 23.9864C17.4551 23.533 18.3587 23.2725 19.8764 23.1121C19.6168 23.4679 19.3597 23.8912 19.1326 24.2795L19.5195 24.5074C21.846 21.1031 24.2998 18.8987 26.3343 17.5385C27.0781 17.0525 27.2379 16.7594 27.4975 16.2409C28.144 14.9107 28.7581 13.9388 29.7916 13.9388C30.2758 13.9388 30.6628 14.1968 30.9548 14.5225L31.6987 14.7504L30.9224 15.269L31.6987 15.5921C30.6977 15.8827 29.3073 16.8897 28.7282 18.3476C27.6623 18.3802 27.1455 19.287 26.7911 20.0009C26.534 20.5195 26.177 20.7148 25.5954 21.0706L21.1695 24.1818L21.7836 24.2795L25.8849 21.524C26.6912 20.9729 27.0806 20.552 27.2729 20.1938C27.6273 19.4147 28.0492 18.8336 28.8555 18.8336C29.2424 18.8336 29.6643 19.029 30.0187 19.3521L30.7302 19.5801L29.9538 20.0661L30.6004 20.4543C28.7282 21.038 27.5649 22.3982 26.8859 24.9934L27.3702 25.0911C27.6298 24.2494 27.8869 23.4704 28.3063 22.7564C29.4047 22.7564 30.503 22.7239 31.6014 22.7239C34.477 22.7239 36.866 22.8541 38.159 23.2098L37.7072 22.4308C36.3193 22.1703 34.3148 22.0751 31.6014 22.0751C30.6653 22.0751 29.7591 22.1076 28.823 22.1076C29.4371 21.4914 30.2758 20.9403 31.6014 20.552L30.6653 20.0335L31.6987 19.4498L30.2783 18.9313C30.0512 18.7033 29.7292 18.4779 29.3422 18.3802C29.7941 16.9874 31.3442 16.1758 32.8295 15.6247L31.7961 15.2038L32.8295 14.6202L31.2144 14.1016C30.7951 13.6157 30.4081 13.3877 29.7616 13.3877C28.2763 13.3877 27.6623 14.6853 27.0482 15.8176C26.7586 16.4338 26.5639 16.6918 26.0147 17.05C24.8839 17.7965 23.3987 18.9613 22.0107 20.4218C21.2993 19.9032 19.7816 18.3476 19.3947 17.5034C19.2324 17.6988 19.0727 18.1522 19.0727 18.1522C19.2349 18.3151 20.9773 20.0635 21.6238 20.8426C21.5914 20.8752 21.5265 20.9403 21.494 21.0054C20.7826 21.1357 18.9753 21.3286 18.3612 21.2334L18.0392 21.8496C18.491 21.8171 20.2684 21.5891 21.0422 21.559C20.815 21.8196 20.5904 22.1101 20.3632 22.4007C18.0367 22.6612 16.519 23.1472 16.519 23.9889C16.519 24.1192 16.5514 24.2795 16.5514 24.4423C16.5514 24.798 16.4216 24.9283 16.1645 25.0911C16.0023 25.1888 16.0023 25.2865 16.0672 25.3817C16.1321 25.4794 16.4865 25.9979 16.4865 26.0956C16.4865 26.291 16.3243 26.4513 16.197 26.6141C16.0672 26.7444 16.0672 26.777 16.1645 26.9373L16.8435 28.3626L17.5549 28.8812L17.5524 28.8887Z" fill="#8E8E8E"/>
<path fill-rule="evenodd" clip-rule="evenodd" d="M46.1371 20.9481C46.0073 21.0784 45.8775 21.2712 45.7502 21.4341L45.3957 20.9155C46.6239 19.2622 49.9189 18.4857 51.856 18.3228V17.4486C51.5964 17.5137 51.3393 17.6114 51.0797 17.6766C50.7577 17.7417 50.4332 17.8394 50.176 17.8068C49.8865 17.8068 49.6593 17.7091 49.562 17.5463C49.3024 17.1906 49.562 16.6395 50.4007 16.1209L49.7217 15.5373C49.205 16.2186 48.7207 16.9626 48.204 17.386C47.7197 17.8068 47.2355 18.0022 46.8485 17.7091C46.6214 17.5463 46.559 17.4812 46.5265 17.0603C46.559 16.4441 46.9134 15.5047 47.238 14.8885L46.4616 14.7908C46.3318 15.7302 45.9449 16.5092 45.5255 17.158C45.0413 17.9671 44.3947 18.5508 43.7157 19.0067L43.2639 18.5859C43.8131 18.2627 44.4921 17.7442 44.9439 17.0303C45.4931 16.1886 45.9449 15.149 45.9449 14.2422L48.2065 14.4376C47.8845 14.8584 47.3678 15.7978 47.1731 16.4466C47.0757 16.8023 47.0757 17.0954 47.2055 17.1931C47.4327 17.3559 47.852 17.0628 48.2714 16.642C48.853 15.9932 49.4347 15.0538 49.6593 14.7307L51.3393 16.0909C50.5954 16.4792 49.8865 16.9326 50.0138 17.1931C50.1436 17.421 50.6279 17.3559 51.1446 17.1931C51.564 17.0628 52.0158 16.8699 52.3728 16.642V18.879C51.5665 18.879 50.2085 19.0418 48.9154 19.4301C49.2375 19.8509 50.1111 20.0137 50.6603 20.1114L50.4007 21.9276C48.9803 21.3113 47.882 20.9882 46.1371 20.9556L46.7187 20.4371C47.9793 20.4696 49.2699 20.8579 49.9813 21.2161L50.0787 20.5348C49.4322 20.4371 48.6259 20.0814 48.2689 19.6605C47.7197 19.8559 47.1706 20.1139 46.7187 20.4396L46.1371 20.9581V20.9481Z" fill="#8E8E8E"/>
<path fill-rule="evenodd" clip-rule="evenodd" d="M39.3547 26.7194L39.8715 25.552C39.3223 24.9032 38.7082 24.0941 38.159 23.2174L37.7072 22.4383C36.6413 20.4293 37.0282 19.4574 36.4791 18.548C35.9948 17.8341 33.7332 18.2875 33.3787 18.3526L34.0252 17.283L32.7322 17.3807L33.8305 16.0831C33.9603 15.8877 33.9928 15.76 34.1201 15.3041C34.3148 14.5901 34.8964 13.4253 36.6388 13.4253C38.5435 13.4253 39.1575 14.9809 39.9663 15.6623C40.9349 16.4413 42.163 17.511 43.2614 18.5806L43.7132 19.0014C44.2948 19.5851 44.844 20.2013 45.3932 20.9128L45.7477 21.4313C48.0742 24.803 50.9149 31.2534 52.208 34.2018C52.3053 34.4924 52.4027 34.7855 52.4975 35.011C51.6263 34.525 50.6877 33.9413 49.6867 33.26L49.1376 32.8717C48.7831 32.6112 48.4261 32.3531 48.0717 32.0926L47.49 31.6067C47.1356 31.3486 46.7786 31.0556 46.4566 30.765L47.6198 37.4734C47.6847 37.8942 48.0392 37.8291 48.2988 37.4734C48.5559 37.1177 48.6857 37.02 48.5559 36.5666L47.49 31.6067L48.0717 32.0926L49.1051 36.2735C49.2025 36.6618 49.3647 36.792 49.8165 36.792C50.2684 36.8246 50.3333 36.6618 50.2684 36.3712L49.1376 32.8717L49.6867 33.26L50.7526 36.4037C51.0422 37.2129 50.7526 37.3106 50.2684 37.3106C49.8165 37.3106 49.3647 37.1803 49.1051 37.3431C48.848 37.5385 48.5235 37.9919 48.1041 38.3802C47.7821 38.7359 47.2654 38.6708 47.168 37.9919L45.875 30.2464C45.0687 29.4999 44.2599 28.7234 43.5485 27.9118C43.2589 27.7815 42.9019 27.6212 42.5799 27.4909L42.1281 27.263C41.9334 27.1653 41.8061 27.1327 41.7736 27.1001C41.4191 27.521 41.0622 28.007 40.6753 28.3326C40.4806 28.528 40.3208 28.6232 40.0287 28.6232C39.9314 28.6232 39.8016 28.6232 39.7067 28.5581C39.5769 28.4929 39.4796 28.3627 39.3522 28.1698C39.2549 28.0395 39.1251 27.8466 38.9978 27.6512C38.7382 27.2304 38.4811 26.6793 38.2214 26.2585C37.9643 25.7725 37.7047 25.4168 37.6723 25.3516C37.6398 25.254 37.51 25.1563 37.51 25.1563C37.3478 25.3516 37.2504 25.7725 37.2504 26.0305L36.7986 25.8677C36.831 25.5445 36.9608 25.1212 37.0582 24.9283C37.0582 24.7655 36.8635 24.54 36.7037 24.54C36.4766 24.54 36.2519 24.768 36.1545 25.2214L35.6703 25.4493C35.7027 24.7028 35.9598 23.8937 36.7037 23.8937C37.2853 23.8937 37.6723 24.3471 37.9319 24.768C38.2214 25.1888 39.16 26.4539 39.3522 26.7119L39.7067 27.1653C39.7716 27.4559 39.9014 27.6187 39.9663 27.7164C40.0961 27.9118 40.2234 27.9118 40.4181 27.7164C40.5155 27.6512 40.7726 27.4258 41.0647 27.1327C41.2918 26.9048 41.5165 26.5816 41.6139 26.4513C41.8735 26.549 42.3902 26.8071 42.7771 26.9699C41.0647 24.8306 39.3847 22.2379 38.6758 20.4869C38.3862 19.7404 38.9653 19.515 39.2249 20.2289C40.0013 22.1728 42.2279 25.6422 43.8755 27.4559C45.7501 29.53 49.205 32.5761 51.4666 33.776C51.1446 33.1272 50.7227 32.2204 50.206 31.1507C47.4601 29.5951 44.7142 26.7419 43.4236 24.2795L43.9728 24.3446C45.1685 26.4839 48.0417 29.3371 49.7541 30.1462C48.204 26.8396 46.1695 22.6588 44.6193 20.8752C42.6498 18.6382 40.518 16.8872 39.4845 16.013C38.4835 15.1062 38.0642 14.004 36.6413 14.004C35.4456 14.004 34.7991 14.8782 34.5744 15.7224C34.5095 15.9178 34.4771 16.013 34.3797 16.1758L33.7981 16.8572L35.0262 16.7269L34.3148 17.6988C34.3148 17.6988 36.2194 17.278 36.8984 18.1848C37.6099 19.1568 37.158 20.259 38.3512 22.4308C38.868 23.3702 40.1286 25.0561 40.548 25.4443L39.7092 27.1628L39.3547 26.7094V26.7194Z" fill="#8E8E8E"/>
<path fill-rule="evenodd" clip-rule="evenodd" d="M20.5554 27.0102L20.2659 26.8148C20.4281 26.6845 20.7501 26.4591 21.0747 26.3288C21.2369 26.2637 21.4291 26.2311 21.5589 26.2311C21.8809 26.2311 22.173 26.3614 22.4301 26.5217C22.8495 26.7496 23.3338 27.0077 23.7232 27.0077C23.853 27.0077 23.9803 26.9751 24.1426 26.9751C24.5295 26.9751 24.8864 27.1379 25.0786 27.1379C25.2085 27.1379 25.2734 27.0402 25.3682 26.91C25.5629 26.6194 25.8525 26.3914 26.207 26.2612C26.5614 26.0983 27.0457 26.0332 27.5325 26.0332C27.9518 26.0332 28.3088 26.0983 28.501 26.1309C28.501 26.1309 28.2114 26.4866 28.1465 26.5843C27.7272 26.5843 26.9833 26.5517 26.499 26.7471C26.177 26.8774 26.0796 27.0703 26.0796 27.2982C26.0796 27.6539 26.499 27.8168 26.9184 27.947C27.208 28.0122 27.5 28.0447 27.7247 28.0447C28.0467 28.0447 28.6283 27.9145 29.21 27.7842C29.9214 27.6539 30.5654 27.4611 30.7601 27.3959L31.0172 27.8493C30.2409 28.1074 29.4346 28.3679 28.6907 28.4981C28.2714 28.5958 27.8844 28.661 27.5275 28.661C26.9134 28.661 26.2669 28.4029 25.7501 28.1424C25.2983 27.947 24.9114 27.7216 24.522 27.7216C24.1326 27.7216 23.7456 27.8518 23.3912 28.0773C23.1965 28.175 22.6473 28.5633 22.163 28.7587C21.7761 28.8889 21.484 28.9866 21.0971 28.9866C20.7751 28.9866 20.5479 28.9215 20.3857 28.7912L20.9673 28.4355C21.0647 28.5006 21.1945 28.5332 21.2569 28.5332C21.3542 28.5332 21.4516 28.5006 21.6763 28.4029C21.8061 28.3704 21.9983 28.2401 22.1281 28.175C22.3552 28.0122 22.4176 27.9145 22.515 27.8518C22.7097 27.7216 22.7746 27.5287 22.5474 27.3333C22.4176 27.2356 22.3203 27.1379 22.193 27.0427C21.9658 26.9125 21.8385 26.8148 21.4491 26.8148C21.0297 26.8148 20.7052 26.9125 20.5454 27.0102H20.5554Z" fill="#8E8E8E"/>
<path fill-rule="evenodd" clip-rule="evenodd" d="M28.7607 27.238C28.7607 27.238 28.4062 27.1403 28.3088 27.1403C28.536 26.8171 28.858 26.5566 29.0852 26.3938C29.5694 26.0706 30.0537 25.8752 30.8301 25.8427C31.0248 25.8101 31.4441 25.7775 31.6688 25.7775C31.896 25.8101 32.2504 25.8101 32.5724 25.8752C32.7996 25.9078 33.0243 25.9729 33.219 26.0055C33.3163 26.0381 33.7032 26.0381 33.8331 26.0055C34.3822 25.9078 35.0288 25.7149 35.3508 25.5195L35.4806 26.0381C34.7691 26.4263 33.9629 26.7846 33.1865 26.7846C32.8321 26.7846 32.4102 26.752 32.0233 26.7194C31.3767 26.6543 30.7951 26.5566 30.6029 26.5566C30.0537 26.5566 29.2774 26.8146 28.7607 27.238Z" fill="#8E8E8E"/>
<path fill-rule="evenodd" clip-rule="evenodd" d="M28.2439 30.121L27.5649 29.7979C28.501 29.3445 29.9239 28.8585 30.5355 28.7608C31.1171 28.6631 31.7961 28.598 32.183 28.4702C32.3777 28.9236 32.7322 29.377 33.2165 29.377C33.4112 29.377 33.7007 29.2468 34.0228 29.119C34.3772 28.9562 34.7017 28.7959 34.8939 28.7307C35.0887 28.633 35.7027 28.375 36.2494 28.1145C36.4441 28.0168 36.9933 27.7588 37.0257 27.7588L37.3802 27.9542C37.2829 28.4076 37.0907 28.9913 36.8959 29.4121C36.831 29.5749 36.7337 29.7027 36.6688 29.8004C36.5065 29.9632 36.2494 30.2212 35.9249 30.4492C35.5704 30.7072 35.1186 30.9677 34.6643 31.2282C34.3098 31.4236 33.9529 31.6491 33.5659 31.8119L33.4037 31.4562C33.9529 31.133 34.5345 30.7423 35.0512 30.354C35.2784 30.1912 35.503 29.9983 35.6653 29.8354C35.7951 29.7377 35.86 29.6401 35.9249 29.5449C36.0872 29.3495 36.3443 28.8961 36.4092 28.7032C36.182 28.8009 35.4082 29.1891 35.0537 29.352C34.6343 29.5799 33.9878 29.9031 33.6009 30.0985C33.3413 30.2287 33.0842 30.2939 32.8895 30.2939C32.4701 30.2939 32.2754 30.0033 32.178 29.8079C31.9184 29.3545 31.6613 29.3219 30.9174 29.3219C30.0787 29.2894 28.9154 29.6451 28.2364 30.131L28.2439 30.121Z" fill="#8E8E8E"/>
<path fill-rule="evenodd" clip-rule="evenodd" d="M32.2155 27.9822C32.2155 27.9822 32.1181 27.5939 32.0532 27.4311C32.0532 27.4311 32.183 27.3985 32.3428 27.3985C32.5699 27.3985 33.214 27.4636 33.4736 27.4636C34.4421 27.4636 34.7991 27.1731 35.0887 26.9125C35.3483 26.6846 35.6054 26.4917 36.2519 26.4917C36.8336 26.4917 37.5125 26.7197 37.7047 26.8148L37.6723 27.3659C37.3827 27.2031 36.9933 27.1079 36.6388 27.1079C36.4117 27.1079 36.187 27.1079 36.0248 27.2056C35.8625 27.3033 35.7352 27.4336 35.5729 27.5613C35.4107 27.6916 35.186 27.8219 34.8615 27.9496C34.5719 28.0799 34.1825 28.145 33.6009 28.145C32.857 28.145 32.4376 28.0147 32.213 27.9822H32.2155Z" fill="#8E8E8E"/>
<path fill-rule="evenodd" clip-rule="evenodd" d="M26.0146 32.0351L26.4665 31.8397C26.8534 32.0026 27.4675 32.1954 27.8868 32.1954C28.1465 32.1954 28.3387 32.0977 28.5009 32.0326C28.6307 31.9675 30.1484 31.2235 30.8923 30.963C31.1195 30.8653 31.3766 30.8327 31.474 30.8327C31.6687 30.8327 31.6687 30.8978 31.7311 30.9955C31.8609 31.2235 32.9917 32.8117 33.0865 32.9069C34.0226 32.6163 34.9912 32.1929 35.5404 31.6744C36.122 31.1233 36.6063 30.4745 37.0905 29.956C37.2528 29.7606 37.4775 29.6003 37.5748 29.5351C38.0591 29.2746 39.5768 29.2445 40.1909 29.2746L39.8364 29.7931C38.7056 29.7931 38.0915 29.9234 37.802 30.1163C37.7046 30.214 37.5124 30.4069 37.3501 30.6348C36.9632 31.1208 36.5414 31.8022 36.3816 31.9324C36.7036 32.1604 37.0606 32.3533 37.6422 32.3533C38.5783 32.3533 39.2573 31.7696 39.6118 31.4464L39.9338 31.6093C39.7066 31.9324 39.417 32.2255 39.095 32.451C38.7081 32.709 38.2238 32.9044 37.9642 32.9695C37.415 32.8718 36.2193 32.6138 35.9298 32.5812C34.8963 33.0021 33.1839 33.6834 32.6347 33.8462C32.5374 33.8788 32.4076 33.9114 32.2478 33.9114C31.796 33.9439 31.1819 33.9439 30.6003 33.9114C30.2134 33.9114 29.8239 33.9114 29.6317 33.8788L29.115 33.3603C29.5668 33.458 29.7291 33.458 30.1484 33.458C31.117 33.458 31.7635 33.2951 31.9582 33.2626C32.1529 33.1974 32.1854 33.0998 32.1205 32.9394C32.0231 32.7115 31.8933 32.4535 31.6687 32.1929C31.5389 32.0627 31.2817 31.8372 31.1844 31.7721C31.0546 31.6744 30.9273 31.6418 30.5379 31.7721C30.2158 31.8698 29.1499 32.4535 28.6956 32.7115C28.4685 32.8092 28.2763 32.8743 27.8893 32.7766C27.4375 32.6789 26.4041 32.2906 26.0171 32.0301L26.0146 32.0351Z" fill="#8E8E8E"/>
<path fill-rule="evenodd" clip-rule="evenodd" d="M28.9553 20.2365C29.15 20.2365 29.3422 20.0411 29.3422 19.8482C29.3422 19.6203 29.1475 19.46 28.9553 19.46C28.7281 19.46 28.5684 19.6228 28.5684 19.8482C28.5684 20.0436 28.7306 20.2365 28.9553 20.2365Z" fill="#8E8E8E"/>
<path fill-rule="evenodd" clip-rule="evenodd" d="M43.5858 42.6336C43.5858 42.343 43.3286 42.0825 43.0041 42.0825H42.1978C41.8758 42.0825 41.6162 42.343 41.6162 42.6336L41.6487 51.321C41.6487 51.6116 41.8758 51.8721 42.1978 51.8721H43.0041C43.3261 51.8721 43.5858 51.6141 43.5858 51.321V42.6336Z" fill="#8E8E8E"/>
<path fill-rule="evenodd" clip-rule="evenodd" d="M44.6194 42.8919V43.2802C44.6194 43.4756 44.7492 43.6034 44.9414 43.6034H50.6254C50.885 43.6034 51.1096 43.3754 51.1096 43.1174V42.436C51.1096 42.1755 50.8825 41.9175 50.6254 41.9501C50.6254 41.9501 45.1336 42.5012 44.9414 42.5337C44.7467 42.5337 44.6194 42.6965 44.6194 42.8894V42.8919Z" fill="#8E8E8E"/>
<path fill-rule="evenodd" clip-rule="evenodd" d="M40.0012 51.8696C38.5809 51.8696 37.7072 50.8 37.7072 49.6001V46.1331H37.2878C37.0931 46.1331 36.9009 45.9377 36.9009 45.7448V45.1612C36.9009 44.9332 37.0956 44.7729 37.2878 44.7729H37.7072V42.6336C37.7072 42.343 37.9343 42.0825 38.2563 42.0825H39.0626C39.3522 42.0825 39.5794 42.343 39.5794 42.6336V44.7729H40.84C41.0671 44.7729 41.2269 44.9357 41.2269 45.1612V45.7448C41.2269 45.9402 41.0646 46.1331 40.84 46.1331H39.5794V49.342C39.5794 49.9583 39.9663 50.4117 40.6453 50.4117H40.7751C41.0022 50.4117 41.1944 50.5745 41.1944 50.8325V51.4488C41.1944 51.6767 40.9997 51.8696 40.7751 51.8696H39.9987H40.0012Z" fill="#8E8E8E"/>
<path fill-rule="evenodd" clip-rule="evenodd" d="M30.3109 48.2076C30.3109 46.3589 29.2125 44.5127 26.7262 44.5127C24.4322 44.5127 23.1741 46.3288 23.1741 48.2076C23.1741 50.2166 24.5295 52.0002 26.7587 52.0002C28.2764 52.0002 29.7617 51.2211 30.0538 49.8935C30.0862 49.7306 29.9564 49.4726 29.7317 49.4726H28.6334C28.4387 49.4726 28.2789 49.5703 28.1816 49.7331C27.8595 50.1865 27.4052 50.4145 26.7612 50.4145C25.7926 50.4145 25.1461 49.668 25.0812 48.8263H29.6993C30.1187 48.8263 30.3134 48.5984 30.3134 48.2101L30.3109 48.2076ZM25.1112 47.4285C25.1761 46.6194 25.8875 46.0032 26.7262 46.0032C27.565 46.0032 28.3089 46.6194 28.4062 47.4285H25.1112Z" fill="#8E8E8E"/>
<path fill-rule="evenodd" clip-rule="evenodd" d="M51.3067 48.2076C51.3067 46.3589 50.2084 44.5127 47.7221 44.5127C45.428 44.5127 44.1699 46.3288 44.1699 48.2076C44.1699 50.2166 45.5254 52.0002 47.7545 52.0002C49.2723 52.0002 50.7575 51.2211 51.0496 49.8935C51.0821 49.7306 50.9522 49.4726 50.7276 49.4726H49.6292C49.4345 49.4726 49.2748 49.5703 49.1774 49.7331C48.8554 50.1865 48.4011 50.4145 47.7246 50.4145C46.7885 50.4145 46.142 49.668 46.0771 48.8263H50.6951C51.1145 48.8263 51.3092 48.5984 51.3092 48.2101L51.3067 48.2076ZM46.107 47.4285C46.1719 46.6194 46.8834 46.0032 47.7221 46.0032C48.5608 46.0032 49.3047 46.6194 49.3696 47.4285H46.107Z" fill="#8E8E8E"/>
<path fill-rule="evenodd" clip-rule="evenodd" d="M36.1569 42.1804H21.2343C20.8798 42.1804 20.6202 42.471 20.6202 42.7966L20.6527 48.6959C20.6527 48.6959 17.455 42.8618 17.2927 42.5687C17.1305 42.2781 16.776 42.0176 16.3242 42.0176H15.096C14.7415 42.0176 14.4819 42.3082 14.4819 42.6338V51.2561C14.4819 51.6118 14.739 51.8723 15.096 51.8723H15.8723C16.2268 51.8723 16.4864 51.6143 16.4864 51.2561L16.454 45.2265C16.454 45.2265 19.6841 51.0932 19.8464 51.3212C20.0086 51.6443 20.3307 51.8723 20.7825 51.8723H21.9133C22.2678 51.8723 22.5274 51.6143 22.5274 51.2561V43.6383H36.1569C36.3841 43.6383 36.5763 43.4429 36.5763 43.2175V42.6012C36.5763 42.3733 36.3816 42.1804 36.1569 42.1804Z" fill="#8E8E8E"/>
<path fill-rule="evenodd" clip-rule="evenodd" d="M33.7357 45.9404C34.3822 45.9404 34.8665 46.1684 35.0612 46.5892C35.1261 46.7846 35.2884 46.8172 35.513 46.8172H36.4167C36.5465 46.8172 36.7387 46.6869 36.7387 46.494C36.7387 45.457 35.4781 44.5176 33.7357 44.5176C31.9933 44.5176 30.7327 45.3918 30.7327 46.7546C30.7327 47.8242 31.5714 48.4404 32.5749 48.731C33.0592 48.8287 33.868 49.0216 34.2549 49.1518C34.6418 49.2495 35.0313 49.3798 35.0313 49.7355C35.0313 50.3192 34.4496 50.482 33.7706 50.482C33.1566 50.482 32.5425 50.2215 32.3827 49.7681C32.2854 49.5076 32.0932 49.4775 31.8336 49.4775H30.9299C30.7677 49.4775 30.5754 49.6403 30.5754 49.8332V49.9635C30.5754 50.968 31.9309 52.0051 33.8056 52.0051C35.0987 52.0051 36.9384 51.4539 36.9384 49.7029C36.9384 48.6659 36.2594 47.9519 35.1286 47.6614C34.7092 47.5637 33.6758 47.2731 33.4486 47.2405C33.0293 47.1103 32.6423 46.98 32.6423 46.6569C32.6423 46.1058 33.1266 45.9429 33.7407 45.9429L33.7357 45.9404Z" fill="#8E8E8E"/>
</g>
<defs>
<clipPath id="clip0_578_22320">
<rect width="40" height="40" fill="white" transform="translate(12.5 12)"/>
</clipPath>
</defs>
</svg>
