<svg width="201" height="64" viewBox="0 0 201 64" fill="none" xmlns="http://www.w3.org/2000/svg">
<mask id="mask0_578_22351" style="mask-type:alpha" maskUnits="userSpaceOnUse" x="0" y="0" width="201" height="64">
<rect x="0.5" width="200" height="64" fill="#D9D9D9"/>
</mask>
<g mask="url(#mask0_578_22351)">
</g>
<g clip-path="url(#clip0_578_22351)">
<path fill-rule="evenodd" clip-rule="evenodd" d="M57.6742 38.0162H61.75C63.3422 38.0162 63.9431 38.5582 63.9431 39.8787C63.9431 41.1993 63.3422 41.692 61.75 41.692H57.6742V38.0162ZM51.3652 51.389H57.6742V45.9492H64.4338C68.9102 45.9492 70.5224 43.3574 70.5224 39.997C70.5224 36.1044 68.8701 33.897 64.3937 33.897H51.3652V51.3791V51.389Z" fill="#8E8E8E"/>
<path fill-rule="evenodd" clip-rule="evenodd" d="M72.5955 33.9067H89.5896V38.1639H78.9144V40.5094H88.8285V44.7764H78.9144V47.1218H89.5896V51.3889H72.5955V33.9067Z" fill="#8E8E8E"/>
<path fill-rule="evenodd" clip-rule="evenodd" d="M98.5321 38.0162H102.608C104.2 38.0162 104.801 38.5582 104.801 39.8787C104.801 41.1993 104.2 41.692 102.608 41.692H98.5321V38.0162ZM92.2231 51.389H98.5321V45.9492H105.292C109.768 45.9492 111.38 43.3574 111.38 39.997C111.38 36.1044 109.728 33.897 105.252 33.897H92.2231V51.3791V51.389Z" fill="#8E8E8E"/>
<path fill-rule="evenodd" clip-rule="evenodd" d="M117.489 43.9685C114.405 43.456 113.123 41.495 113.123 39.051C113.123 34.5179 117.179 33.2959 122.366 33.2959C129.486 33.2959 132.41 35.326 132.641 39.0214H125.3C125.3 38.3119 124.92 37.8685 124.339 37.6221C123.778 37.356 123.067 37.2575 122.366 37.2575C120.483 37.2575 119.842 37.7699 119.842 38.509C119.842 39.0017 120.043 39.3171 120.674 39.4156L128.214 40.6376C131.389 41.15 133.362 42.7662 133.362 45.7325C133.362 49.9897 130.187 52 123.087 52C118.23 52 112.923 51.2708 112.903 46.1266H120.513C120.533 46.7179 120.734 47.1023 121.184 47.3782C121.655 47.6246 122.346 47.7428 123.327 47.7428C125.3 47.7428 125.831 47.1515 125.831 46.3237C125.831 45.8113 125.541 45.2989 124.689 45.151L117.479 43.9783L117.489 43.9685Z" fill="#8E8E8E"/>
<path fill-rule="evenodd" clip-rule="evenodd" d="M135.415 33.9067H141.724V51.3889H135.415V33.9067Z" fill="#8E8E8E"/>
<path fill-rule="evenodd" clip-rule="evenodd" d="M165.117 44.5795C164.716 46.8855 163.995 48.7381 162.433 50.0192C160.891 51.2905 158.477 52 154.622 52C150.766 52 143.696 51.7044 143.696 42.648C143.696 33.5915 150.786 33.2959 154.622 33.2959C158.457 33.2959 164.286 33.8379 165.117 40.7657H157.997C157.816 39.5142 157.055 37.7009 154.622 37.7009C152.048 37.7009 150.416 39.1003 150.416 42.648C150.416 46.1956 152.008 47.595 154.311 47.595C156.304 47.595 157.486 46.6884 158.007 44.5795H165.127H165.117Z" fill="#8E8E8E"/>
<path fill-rule="evenodd" clip-rule="evenodd" d="M173.368 42.648C173.368 39.1003 175.001 37.7009 177.574 37.7009C180.148 37.7009 181.78 39.1003 181.78 42.648C181.78 46.1956 180.148 47.595 177.574 47.595C175.001 47.595 173.368 46.1956 173.368 42.648ZM166.659 42.648C166.659 51.7044 173.749 52 177.584 52C181.42 52 188.51 51.7044 188.51 42.648C188.51 33.5915 181.42 33.2959 177.584 33.2959C173.749 33.2959 166.659 33.5915 166.659 42.648Z" fill="#8E8E8E"/>
<path fill-rule="evenodd" clip-rule="evenodd" d="M41.8316 34.0746C42.2421 25.6882 34.8917 16.2376 24.8675 15.0748L24.8875 14.9565C34.7615 14.9565 42.3423 23.9538 42.3423 31.059C42.3423 32.5372 42.2121 33.4537 42.0018 34.114L41.8316 34.0746ZM41.2307 35.1389C40.5698 35.9272 39.7486 36.7255 38.7772 37.4843C36.9947 27.403 29.464 18.5831 24.1464 16.011L24.0363 16.0898C29.3939 20.416 35.773 28.8122 38.2565 37.8784C37.0648 38.7358 35.6928 39.534 34.1807 40.1746C29.1235 34.5082 24.4168 23.5695 22.9047 16.6318L22.7545 16.6811C22.7845 23.4118 27.6514 34.8531 33.5698 40.4308C32.258 40.9432 30.8359 41.3374 29.3538 41.5739C23.6758 39.3566 19.63 32.2712 19.63 24.9984C19.63 20.2583 21.1021 17.3217 21.3825 16.7205L21.2623 16.6713C20.9219 17.1837 18.7688 20.1204 18.7688 25.2349C18.7688 33.4439 22.8846 39.7213 28.3524 41.702C26.4798 41.8991 24.517 41.84 22.4941 41.436L22.454 41.5641C23.0349 41.7809 25.0177 42.5988 28.042 42.5988C34.8817 42.5988 39.5083 38.4106 41.3709 35.2374L41.2407 35.1487L41.2307 35.1389Z" fill="#8E8E8E"/>
<path fill-rule="evenodd" clip-rule="evenodd" d="M27.3512 12C22.1638 12 16.0752 15.6856 16.0752 19.0559C16.0752 20.3567 17.2869 21.4605 19.7905 21.4605C25.6087 21.4605 31.0164 17.5285 31.0164 14.4637C31.0164 12.8574 29.4442 12 27.3412 12H27.3512ZM29.4242 14.3651C29.4242 16.947 24.397 20.0907 20.191 20.0907C18.3284 20.0907 17.327 19.3713 17.327 18.1789C17.317 15.5772 22.4042 12.473 26.3498 12.473C28.9234 12.473 29.4141 13.764 29.4141 14.3651H29.4242Z" fill="#8E8E8E"/>
<path fill-rule="evenodd" clip-rule="evenodd" d="M14.012 20.6131C13.8618 20.8595 13.281 21.9829 13.281 23.1359C13.281 25.2744 15.4741 27.2552 19.5099 27.2552C27.2809 27.2552 36.2536 21.6282 36.2536 16.4052C36.2536 14.0598 34.0004 12.7885 32.4282 12.5225L32.3982 12.6112C32.8889 12.759 34.6714 13.5769 34.6714 15.6661C34.6714 19.8248 26.7501 25.501 18.8589 25.501C15.8346 25.501 13.9319 24.0327 13.9319 21.8942C13.9319 21.2143 14.0721 20.7708 14.1122 20.6427L14.002 20.6033L14.012 20.6131Z" fill="#8E8E8E"/>
<path fill-rule="evenodd" clip-rule="evenodd" d="M39.4583 16.7993C39.6686 16.957 40.9504 18.0114 40.9504 19.9922C40.9504 26.7624 30.1751 33.4142 20.6515 33.4142C14.9735 33.4142 12.3898 30.6549 12.5 28.2011H12.6101C12.8304 29.4724 14.673 31.7488 19.6501 31.7488C29.1837 31.7488 39.8288 24.8604 39.8288 18.8392C39.8288 17.8045 39.5484 17.1639 39.3781 16.8683L39.4583 16.7993Z" fill="#8E8E8E"/>
<path fill-rule="evenodd" clip-rule="evenodd" d="M43.0635 23.1158C43.1036 23.2636 43.3439 23.9042 43.3439 24.9192C43.3439 32.4482 32.4384 38.8832 22.965 38.8832C18.088 38.8832 15.5344 36.5477 15.0037 35.6016L15.0938 35.5425C16.4457 36.7054 19.0995 37.5824 22.2039 37.5824C30.5758 37.5824 43.0735 31.3149 42.9634 23.1355L43.0836 23.106L43.0635 23.1158Z" fill="#8E8E8E"/>
</g>
<defs>
<clipPath id="clip0_578_22351">
<rect width="176" height="40" fill="white" transform="translate(12.5 12)"/>
</clipPath>
</defs>
</svg>
