<svg width="57" height="56" viewBox="0 0 57 56" fill="none" xmlns="http://www.w3.org/2000/svg">
<mask id="mask0_578_22520" style="mask-type:alpha" maskUnits="userSpaceOnUse" x="0" y="0" width="57" height="56">
<rect x="0.5" width="56" height="56" fill="#D9D9D9"/>
</mask>
<g mask="url(#mask0_578_22520)">
<path d="M25.7354 6.06654C26.6307 3.31115 30.5289 3.31116 31.4241 6.06654L35.2944 17.9779C35.6948 19.2102 36.8431 20.0445 38.1387 20.0445H50.6631C53.5603 20.0445 54.7649 23.7518 52.421 25.4548L42.2886 32.8164C41.2404 33.578 40.8018 34.9279 41.2021 36.1601L45.0724 48.0715C45.9677 50.8269 42.814 53.1182 40.4701 51.4153L30.3377 44.0536C29.2895 43.292 27.8701 43.292 26.8219 44.0536L16.6894 51.4153C14.3456 53.1182 11.1919 50.8269 12.0872 48.0715L15.9574 36.1601C16.3578 34.9279 15.9192 33.578 14.871 32.8164L4.73855 25.4547C2.39468 23.7518 3.59928 20.0445 6.49646 20.0445H19.0208C20.3165 20.0445 21.4648 19.2102 21.8652 17.9779L25.7354 6.06654Z" fill="#FFE236" stroke="black"/>
<path d="M28.5797 31.4302C34.1067 31.4302 37.2485 26.8775 37.2485 26.8775C37.2485 26.8775 34.0804 22.3247 28.5797 22.3247C23.4178 22.3247 19.9109 26.8775 19.9109 26.8775C19.9109 26.8775 23.0527 31.4302 28.5797 31.4302Z" fill="white"/>
<path d="M28.5797 31.4302C34.1067 31.4302 37.2485 26.8775 37.2485 26.8775C37.2485 26.8775 34.0804 22.3247 28.5797 22.3247C23.4178 22.3247 19.9109 26.8775 19.9109 26.8775C19.9109 26.8775 23.0527 31.4302 28.5797 31.4302Z" stroke="black" stroke-linecap="round" stroke-linejoin="round"/>
<path d="M26.731 28.8112C26.4757 28.8112 26.2309 28.7098 26.0504 28.5293C25.8698 28.3488 25.7684 28.1039 25.7684 27.8487C25.7684 27.5934 25.8698 27.3485 26.0504 27.168C26.2309 26.9875 26.4757 26.8861 26.731 26.8861C26.8384 26.886 26.9452 26.9043 27.0465 26.9401C26.8632 26.4644 26.5402 26.0552 26.1199 25.7666C25.6996 25.478 25.2018 25.3234 24.6919 25.3232C24.0221 25.3232 23.3798 25.5893 22.9062 26.0629C22.4326 26.5365 22.1665 27.1789 22.1665 27.8487C22.1665 28.5184 22.4326 29.1608 22.9062 29.6344C23.3798 30.108 24.0221 30.3741 24.6919 30.3741C25.2018 30.3739 25.6996 30.2193 26.1199 29.9307C26.5402 29.6421 26.8632 29.233 27.0465 28.7572C26.9452 28.7931 26.8384 28.8113 26.731 28.8112Z" fill="black"/>
<path d="M23.4275 35.5034C24.0023 36.3385 24.7716 37.0213 25.6691 37.4928C26.5666 37.9643 27.5653 38.2105 28.5791 38.2099C29.5927 38.2102 30.5912 37.964 31.4884 37.4925C32.3856 37.021 33.1547 36.3383 33.7293 35.5034" stroke="black" stroke-linejoin="round"/>
</g>
</svg>
