<svg width="190" height="64" viewBox="0 0 190 64" fill="none" xmlns="http://www.w3.org/2000/svg">
<mask id="mask0_578_22366" style="mask-type:alpha" maskUnits="userSpaceOnUse" x="0" y="0" width="190" height="64">
<rect x="0.5" width="189" height="64" fill="#D9D9D9"/>
</mask>
<g mask="url(#mask0_578_22366)">
</g>
<g clip-path="url(#clip0_578_22366)">
<path d="M12.5 20.3904C12.5 20.3904 16.6258 37.2718 17.2757 40.0072C18.042 43.2115 19.4291 44.3884 23.4126 43.593L25.9767 33.1331C26.6298 30.5399 27.0696 28.684 27.4802 26.0326H27.5513C27.8488 28.6969 28.2594 30.5399 28.7994 33.1331C28.7994 33.1331 29.847 37.8829 30.387 40.3758C30.927 42.872 32.4143 44.4434 36.3267 43.593L42.4507 20.3904H37.5036L35.4052 30.4268C34.8393 33.3465 34.3285 35.6292 33.9437 38.2935H33.8726C33.5169 35.6422 33.0642 33.4597 32.4822 30.6111L30.2997 20.3904H25.1392L22.8144 30.3556C22.1484 33.3885 21.5373 35.8265 21.1428 38.4067H21.0717C20.674 35.9817 20.1372 32.9067 19.5552 29.9741C19.5552 29.9741 18.1649 22.8445 17.6831 20.3936H12.5V20.3904ZM59.6716 20.3904V43.593H64.3762V20.3904H59.6716ZM126.02 20.3904V37.4981C126.02 39.852 126.46 41.5107 127.411 42.5163C128.248 43.3958 129.606 43.9778 131.252 43.9778C132.642 43.9778 134.016 43.7094 134.666 43.4669L134.608 39.7809C134.126 39.8941 133.573 39.9943 132.823 39.9943C131.223 39.9943 130.683 38.9596 130.683 36.8482V30.3006H134.78V25.8645H130.683V20.3774L126.02 20.3904ZM49.1405 25.7772C46.2079 25.7772 43.8831 26.5984 42.6221 27.3357L43.5436 30.5108C44.7044 29.7736 46.5474 29.1787 48.2934 29.1787C51.184 29.1657 51.6658 30.8083 51.6658 31.8721V32.1275C45.3575 32.1146 41.374 34.2971 41.374 38.7462C41.374 41.4687 43.4013 44.0037 46.9289 44.0037C49.0985 44.0037 50.9124 43.1404 52.0021 41.75H52.1152C52.1152 41.75 52.8395 44.77 56.8069 43.606C56.5934 42.3579 56.5385 41.0128 56.5385 39.409V33.2139C56.5255 29.2466 54.8377 25.7739 49.1405 25.7739V25.7772ZM77.3193 25.7772C74.3705 25.7772 73.0545 27.2645 72.2462 28.5417H72.1751V26.1749H67.6807V43.6092H72.4143V33.3885C72.4143 32.9067 72.4725 32.3959 72.6407 31.9561C73.0384 30.9215 73.9857 29.7154 75.5184 29.7154C77.4325 29.7154 78.3249 31.3321 78.3249 33.6569V43.593H83.0586V33.2462C83.0586 32.7936 83.1168 32.2407 83.2558 31.83C83.6373 30.6531 84.672 29.7025 86.1044 29.7025C88.0477 29.7025 88.9659 31.2901 88.9659 34.0384V43.593H93.6996V33.3303C93.6996 27.9144 90.9512 25.7739 87.8472 25.7739C86.473 25.7739 85.3963 26.1134 84.4037 26.7245C83.5824 27.2354 82.8452 27.9435 82.192 28.8941H82.1209C81.3708 27.0091 79.6118 25.7772 77.3161 25.7772H77.3193ZM103.329 25.7772C100.396 25.7772 98.084 26.5984 96.8069 27.3357L97.7413 30.5108C98.9021 29.7736 100.745 29.1787 102.491 29.1787C105.382 29.1657 105.851 30.8083 105.851 31.8721V32.1275C99.5423 32.1146 95.5588 34.2971 95.5588 38.7462C95.5588 41.4687 97.5861 44.0037 101.114 44.0037C103.283 44.0037 105.097 43.1404 106.187 41.75H106.3C106.3 41.75 107.024 44.77 110.992 43.606C110.778 42.3579 110.723 41.0128 110.723 39.409V33.2139C110.71 29.2466 109.023 25.7739 103.325 25.7739L103.329 25.7772ZM122.987 25.7772C121.174 25.7772 119.104 26.9541 118.238 29.4632H118.112V26.1749H113.847V43.6092H118.71V34.6786C118.71 34.1969 118.739 33.7701 118.81 33.3885C119.166 31.5164 120.595 30.3265 122.651 30.3265C123.217 30.3265 123.615 30.3847 124.054 30.4526V25.8871C123.699 25.803 123.46 25.7739 122.991 25.7739L122.987 25.7772ZM51.8178 35.1895V37.3591C51.8178 37.6857 51.7887 38.0122 51.7046 38.3097C51.336 39.5157 50.0879 40.5343 48.5294 40.5343C47.2264 40.5343 46.1917 39.7971 46.1917 38.2224C46.1788 35.8426 48.814 35.1766 51.8178 35.1895ZM106.006 35.1895V37.3591C106.006 37.6857 105.977 38.0122 105.893 38.3097C105.524 39.5157 104.276 40.5343 102.717 40.5343C101.414 40.5343 100.38 39.7971 100.38 38.2224C100.367 35.8426 103.002 35.1766 106.006 35.1895Z" fill="#8E8E8E"/>
<path d="M160.236 12C158.719 12 157.5 12.8504 157.5 13.8851L158.422 24.345C158.522 24.969 159.301 25.4637 160.223 25.4637C161.144 25.4637 161.924 24.982 162.037 24.345L162.958 13.8851C162.971 12.8504 161.768 12 160.236 12V12ZM145.184 20.3906C144.392 20.4035 143.497 21.0017 142.931 21.9911C142.164 23.3103 142.307 24.7847 143.199 25.2924L152.725 29.7286C153.32 29.9549 154.128 29.5313 154.597 28.723C155.066 27.9146 155.036 27.0093 154.539 26.5954L145.935 20.5717C145.692 20.4456 145.453 20.3874 145.184 20.3874V20.3906ZM175.29 20.3906C175.022 20.3906 174.779 20.4488 174.553 20.5749L165.949 26.5987C165.454 27.0093 165.425 27.9179 165.891 28.7262C166.36 29.5346 167.168 29.9581 167.763 29.7318L177.289 25.2956C178.181 24.7847 178.31 23.3103 177.557 21.9943C176.975 21.0179 176.082 20.4197 175.29 20.3938V20.3906ZM153.064 34.1971C152.938 34.1971 152.822 34.21 152.708 34.2553L143.183 38.6785C142.291 39.2023 142.148 40.6638 142.915 41.996C143.681 43.3152 145.013 43.9392 145.905 43.4122L154.509 37.3884C155.004 36.9778 155.033 36.0692 154.568 35.2609C154.212 34.6077 153.604 34.1971 153.064 34.1971ZM167.407 34.1971C166.867 34.21 166.272 34.6077 165.891 35.2609C165.422 36.0692 165.464 36.9745 165.949 37.3884L174.553 43.4122C175.445 43.923 176.794 43.299 177.544 41.996C178.294 40.6767 178.168 39.2023 177.276 38.6785L167.75 34.2553C167.65 34.2132 167.537 34.1971 167.411 34.1971H167.407ZM160.236 38.533C159.301 38.533 158.535 39.0148 158.435 39.6518L157.513 50.1117C157.513 51.1464 158.719 51.9968 160.249 51.9968C161.778 51.9968 162.984 51.1464 162.984 50.1117L162.063 39.6518C161.936 39.0148 161.17 38.533 160.236 38.533Z" fill="#8E8E8E"/>
</g>
<defs>
<clipPath id="clip0_578_22366">
<rect width="165.548" height="40" fill="white" transform="translate(12.5 12)"/>
</clipPath>
</defs>
</svg>
