<svg width="159" height="24" viewBox="0 0 159 24" fill="none" xmlns="http://www.w3.org/2000/svg">
<path d="M19.1296 0H5.41197C2.84279 0 0.762695 2.169 0.762695 4.848V19.155C0.762695 21.831 2.84279 24 5.41197 24H19.1325C21.6988 24 23.7818 21.831 23.7818 19.152V4.848C23.7789 2.169 21.6988 0 19.1296 0Z" fill="url(#paint0_linear_2753_34042)"/>
<path d="M12.1735 5.51385L12.6395 4.67385C12.9272 4.14885 13.5688 3.97185 14.0723 4.27185C14.5758 4.57185 14.7455 5.24085 14.4578 5.76585L9.96678 13.8718H13.2149C14.2679 13.8718 14.8577 15.1618 14.4003 16.0558H4.87732C4.29616 16.0558 3.83008 15.5698 3.83008 14.9638C3.83008 14.3578 4.29616 13.8718 4.87732 13.8718H7.5472L10.9651 7.69485L9.89773 5.76285C9.61003 5.23785 9.77977 4.57485 10.2833 4.26885C10.7867 3.96885 11.4226 4.14585 11.716 4.67085L12.1735 5.51385ZM8.13411 17.1808L7.12715 19.0018C6.83945 19.5268 6.19787 19.7038 5.69439 19.4038C5.19091 19.1038 5.02117 18.4348 5.30887 17.9098L6.0569 16.5598C6.90274 16.2868 7.59035 16.4968 8.13411 17.1808ZM16.8055 13.8778H19.53C20.1112 13.8778 20.5773 14.3638 20.5773 14.9698C20.5773 15.5758 20.1112 16.0618 19.53 16.0618H18.0167L19.038 17.9098C19.3257 18.4348 19.156 19.0978 18.6525 19.4038C18.149 19.7038 17.5132 19.5268 17.2198 19.0018C15.4993 15.8908 14.2075 13.5628 13.3502 12.0118C12.4727 10.4338 13.0999 8.84985 13.7184 8.31285C14.406 9.54285 15.4331 11.3998 16.8055 13.8778Z" fill="white"/>
<path d="M107.247 18.2819C106.43 18.2819 105.705 18.0899 105.072 17.7059C104.439 17.3099 103.939 16.7639 103.57 16.0679C103.214 15.3719 103.035 14.5499 103.035 13.6019C103.035 12.6659 103.214 11.8499 103.57 11.1539C103.927 10.4459 104.422 9.89987 105.055 9.51587C105.699 9.11987 106.442 8.92188 107.282 8.92188C108.11 8.92188 108.824 9.11987 109.422 9.51587C110.032 9.89987 110.498 10.4099 110.82 11.0459C111.143 11.6819 111.304 12.3659 111.304 13.0979C111.304 13.2299 111.298 13.3619 111.286 13.4939C111.286 13.6259 111.286 13.7759 111.286 13.9439H104.468C104.502 14.6279 104.652 15.1979 104.917 15.6539C105.193 16.0979 105.532 16.4339 105.935 16.6619C106.349 16.8899 106.787 17.0039 107.247 17.0039C107.846 17.0039 108.346 16.8599 108.749 16.5719C109.152 16.2839 109.445 15.8939 109.629 15.4019H111.062C110.832 16.2299 110.389 16.9199 109.733 17.4719C109.088 18.0119 108.26 18.2819 107.247 18.2819ZM107.247 10.1999C106.557 10.1999 105.941 10.4219 105.4 10.8659C104.871 11.2979 104.566 11.9339 104.485 12.7739H109.871C109.836 11.9699 109.572 11.3399 109.077 10.8839C108.582 10.4279 107.972 10.1999 107.247 10.1999Z" fill="white"/>
<path d="M97.1016 18.0659V9.13788H98.4135L98.5343 10.8479C98.799 10.2599 99.2018 9.79188 99.7427 9.44388C100.284 9.09588 100.951 8.92188 101.745 8.92188V10.5059H101.348C100.842 10.5059 100.376 10.6019 99.9498 10.7939C99.524 10.9739 99.1845 11.2859 98.9314 11.7299C98.6782 12.1739 98.5516 12.7859 98.5516 13.5659V18.0659H97.1016Z" fill="white"/>
<path d="M90.4425 18.2819C89.6369 18.2819 88.9119 18.0899 88.2674 17.7059C87.623 17.3219 87.1109 16.7819 86.7311 16.0859C86.3628 15.3779 86.1787 14.5499 86.1787 13.6019C86.1787 12.6539 86.3686 11.8319 86.7484 11.1359C87.1281 10.4279 87.6402 9.88188 88.2847 9.49788C88.9407 9.11388 89.6714 8.92188 90.477 8.92188C91.2826 8.92188 92.0076 9.11388 92.652 9.49788C93.2965 9.88188 93.8028 10.4279 94.1711 11.1359C94.5509 11.8319 94.7407 12.6539 94.7407 13.6019C94.7407 14.5499 94.5509 15.3779 94.1711 16.0859C93.7913 16.7819 93.2735 17.3219 92.6175 17.7059C91.973 18.0899 91.248 18.2819 90.4425 18.2819ZM90.4425 16.9859C90.9373 16.9859 91.3976 16.8599 91.8234 16.6079C92.2492 16.3559 92.5945 15.9779 92.8592 15.4739C93.1239 14.9699 93.2562 14.3459 93.2562 13.6019C93.2562 12.8579 93.1239 12.2339 92.8592 11.7299C92.606 11.2259 92.2665 10.8479 91.8407 10.5959C91.4149 10.3439 90.9603 10.2179 90.477 10.2179C89.9821 10.2179 89.5218 10.3439 89.096 10.5959C88.6702 10.8479 88.325 11.2259 88.0603 11.7299C87.7956 12.2339 87.6633 12.8579 87.6633 13.6019C87.6633 14.3459 87.7956 14.9699 88.0603 15.4739C88.325 15.9779 88.6645 16.3559 89.0788 16.6079C89.5046 16.8599 89.9591 16.9859 90.4425 16.9859Z" fill="white"/>
<path d="M83.1396 18.0661C82.357 18.0661 81.7414 17.8681 81.2925 17.4721C80.8437 17.0761 80.6193 16.3621 80.6193 15.3301V10.4161H79.1348V9.13809H80.6193L80.8092 6.99609H82.0693V9.13809H84.5896V10.4161H82.0693V15.3301C82.0693 15.8941 82.1787 16.2781 82.3973 16.4821C82.616 16.6741 83.0015 16.7701 83.5539 16.7701H84.4515V18.0661H83.1396Z" fill="white"/>
<path d="M73.3673 18.282C72.4812 18.282 71.7102 18.114 71.0542 17.778C70.3982 17.442 69.8919 16.974 69.5351 16.374C69.1784 15.774 69 15.078 69 14.286H70.5191C70.5191 14.778 70.6284 15.234 70.8471 15.654C71.0657 16.062 71.3822 16.392 71.7965 16.644C72.2223 16.884 72.7459 17.004 73.3673 17.004C74.1844 17.004 74.8174 16.8 75.2662 16.392C75.715 15.984 75.9394 15.474 75.9394 14.862C75.9394 14.358 75.8358 13.956 75.6287 13.656C75.4215 13.344 75.1396 13.092 74.7828 12.9C74.4376 12.708 74.0348 12.54 73.5745 12.396C73.1257 12.252 72.6538 12.09 72.159 11.91C71.2268 11.574 70.5363 11.16 70.0875 10.668C69.6387 10.164 69.4143 9.51 69.4143 8.706C69.4028 8.034 69.5524 7.44 69.8631 6.924C70.1738 6.396 70.6111 5.988 71.175 5.7C71.7504 5.4 72.4294 5.25 73.212 5.25C73.983 5.25 74.6505 5.4 75.2144 5.7C75.7898 6 76.2329 6.414 76.5436 6.942C76.8658 7.47 77.0327 8.07 77.0442 8.742H75.5251C75.5251 8.394 75.4388 8.052 75.2662 7.716C75.0935 7.368 74.8289 7.086 74.4721 6.87C74.1269 6.654 73.6896 6.546 73.1602 6.546C72.5042 6.534 71.9633 6.708 71.5375 7.068C71.1232 7.428 70.9161 7.926 70.9161 8.562C70.9161 9.102 71.06 9.516 71.3477 9.804C71.6469 10.092 72.0612 10.332 72.5905 10.524C73.1199 10.704 73.7298 10.914 74.4203 11.154C74.9957 11.37 75.5136 11.622 75.9739 11.91C76.4342 12.198 76.791 12.57 77.0442 13.026C77.3089 13.482 77.4412 14.064 77.4412 14.772C77.4412 15.372 77.2916 15.942 76.9924 16.482C76.6932 17.01 76.2386 17.442 75.6287 17.778C75.0303 18.114 74.2765 18.282 73.3673 18.282Z" fill="white"/>
<path d="M53.9307 22.0259V9.13788H55.2426L55.3807 10.6139C55.6569 10.1819 56.0482 9.79188 56.5545 9.44388C57.0724 9.09588 57.7283 8.92188 58.5224 8.92188C59.374 8.92188 60.1163 9.12587 60.7492 9.53387C61.3822 9.94187 61.8713 10.4999 62.2165 11.2079C62.5733 11.9159 62.7516 12.7199 62.7516 13.6199C62.7516 14.5199 62.5733 15.3239 62.2165 16.0319C61.8713 16.7279 61.3764 17.2799 60.732 17.6879C60.099 18.0839 59.3567 18.2819 58.5051 18.2819C57.8031 18.2819 57.176 18.1319 56.6236 17.8319C56.0827 17.5319 55.6684 17.1119 55.3807 16.5719V22.0259H53.9307ZM58.3498 16.9679C58.9252 16.9679 59.4315 16.8299 59.8688 16.5539C60.3062 16.2659 60.6514 15.8699 60.9046 15.3659C61.1578 14.8619 61.2843 14.2739 61.2843 13.6019C61.2843 12.9299 61.1578 12.3419 60.9046 11.8379C60.6514 11.3339 60.3062 10.9439 59.8688 10.6679C59.4315 10.3799 58.9252 10.2359 58.3498 10.2359C57.7744 10.2359 57.268 10.3799 56.8307 10.6679C56.3934 10.9439 56.0482 11.3339 55.795 11.8379C55.5418 12.3419 55.4152 12.9299 55.4152 13.6019C55.4152 14.2739 55.5418 14.8619 55.795 15.3659C56.0482 15.8699 56.3934 16.2659 56.8307 16.5539C57.268 16.8299 57.7744 16.9679 58.3498 16.9679Z" fill="white"/>
<path d="M42.7461 22.0259V9.13788H44.058L44.1961 10.6139C44.4723 10.1819 44.8636 9.79188 45.3699 9.44388C45.8878 9.09588 46.5438 8.92188 47.3378 8.92188C48.1894 8.92188 48.9317 9.12587 49.5646 9.53387C50.1976 9.94187 50.6867 10.4999 51.0319 11.2079C51.3887 11.9159 51.5671 12.7199 51.5671 13.6199C51.5671 14.5199 51.3887 15.3239 51.0319 16.0319C50.6867 16.7279 50.1918 17.2799 49.5474 17.6879C48.9144 18.0839 48.1722 18.2819 47.3206 18.2819C46.6186 18.2819 45.9914 18.1319 45.439 17.8319C44.8981 17.5319 44.4838 17.1119 44.1961 16.5719V22.0259H42.7461ZM47.1652 16.9679C47.7406 16.9679 48.247 16.8299 48.6843 16.5539C49.1216 16.2659 49.4668 15.8699 49.72 15.3659C49.9732 14.8619 50.0998 14.2739 50.0998 13.6019C50.0998 12.9299 49.9732 12.3419 49.72 11.8379C49.4668 11.3339 49.1216 10.9439 48.6843 10.6679C48.247 10.3799 47.7406 10.2359 47.1652 10.2359C46.5898 10.2359 46.0834 10.3799 45.6461 10.6679C45.2088 10.9439 44.8636 11.3339 44.6104 11.8379C44.3572 12.3419 44.2306 12.9299 44.2306 13.6019C44.2306 14.2739 44.3572 14.8619 44.6104 15.3659C44.8636 15.8699 45.2088 16.2659 45.6461 16.5539C46.0834 16.8299 46.5898 16.9679 47.1652 16.9679Z" fill="white"/>
<path d="M30.2646 18.0658L34.7183 5.46582H36.2546L40.691 18.0658H39.1547L38.0499 14.8258H32.9058L31.7837 18.0658H30.2646ZM33.3373 13.6018H37.6183L35.4778 7.37382L33.3373 13.6018Z" fill="white"/>
<path fill-rule="evenodd" clip-rule="evenodd" d="M126.169 15.8725L124.604 14.9331C123.942 14.5361 123.114 14.5361 122.452 14.9331L120.887 15.8725L121.302 14.1022C121.478 13.354 121.222 12.5706 120.638 12.0675L119.254 10.8747L121.073 10.7213C121.843 10.6564 122.513 10.1735 122.814 9.46665L123.528 7.79132L124.242 9.46665C124.543 10.1735 125.213 10.6564 125.983 10.7213L127.802 10.8747L126.418 12.0675C125.834 12.5706 125.578 13.354 125.754 14.1022L126.169 15.8725ZM123.887 16.1144C123.666 15.9821 123.39 15.9821 123.169 16.1144L120.196 17.8988C119.671 18.2142 119.022 17.7457 119.162 17.1514L119.951 13.7887C120.01 13.5393 119.924 13.2781 119.73 13.1104L117.102 10.847C116.638 10.4473 116.886 9.68962 117.498 9.63804L120.956 9.34639C121.212 9.32476 121.436 9.16378 121.536 8.92818L122.889 5.75418C123.128 5.19327 123.928 5.19327 124.167 5.75418L125.52 8.92818C125.62 9.16378 125.844 9.32476 126.1 9.34639L129.558 9.63804C130.17 9.68962 130.418 10.4473 129.954 10.847L127.326 13.1104C127.132 13.2781 127.046 13.5393 127.105 13.7887L127.894 17.1514C128.034 17.7457 127.385 18.2142 126.86 17.8988L123.887 16.1144Z" fill="#F4C000"/>
<path d="M139.736 17.5V15.42H134.216V13.788L139.464 6.3H141.784V13.644H143.256V15.42H141.784V17.5H139.736ZM136.408 13.644H139.864V8.556L136.408 13.644ZM145.698 17.612C145.325 17.612 145.016 17.4947 144.77 17.26C144.536 17.0253 144.418 16.7427 144.418 16.412C144.418 16.0707 144.536 15.7827 144.77 15.548C145.016 15.3133 145.325 15.196 145.698 15.196C146.072 15.196 146.376 15.3133 146.61 15.548C146.856 15.7827 146.978 16.0707 146.978 16.412C146.978 16.7427 146.856 17.0253 146.61 17.26C146.376 17.4947 146.072 17.612 145.698 17.612ZM152.726 17.692C151.905 17.692 151.195 17.548 150.598 17.26C150.011 16.972 149.547 16.5773 149.206 16.076C148.875 15.564 148.683 14.988 148.63 14.348H150.63C150.726 14.8067 150.961 15.1907 151.334 15.5C151.707 15.7987 152.171 15.948 152.726 15.948C153.323 15.948 153.809 15.7293 154.182 15.292C154.566 14.8547 154.758 14.3107 154.758 13.66C154.758 12.988 154.566 12.4547 154.182 12.06C153.809 11.6653 153.334 11.468 152.758 11.468C152.278 11.468 151.862 11.5853 151.51 11.82C151.158 12.0547 150.907 12.348 150.758 12.7H148.79L149.75 6.3H155.958V8.092H151.286L150.774 10.684C151.009 10.428 151.329 10.22 151.734 10.06C152.139 9.88933 152.593 9.804 153.094 9.804C153.894 9.804 154.561 9.98533 155.094 10.348C155.627 10.7 156.033 11.1693 156.31 11.756C156.587 12.332 156.726 12.9613 156.726 13.644C156.726 14.4227 156.555 15.116 156.214 15.724C155.883 16.332 155.414 16.812 154.806 17.164C154.209 17.516 153.515 17.692 152.726 17.692Z" fill="white"/>
<defs>
<linearGradient id="paint0_linear_2753_34042" x1="12.2722" y1="0" x2="12.2722" y2="24" gradientUnits="userSpaceOnUse">
<stop stop-color="#18BFFB"/>
<stop offset="1" stop-color="#2072F3"/>
</linearGradient>
</defs>
</svg>
