<svg width="186" height="40" viewBox="0 0 186 40" fill="none" xmlns="http://www.w3.org/2000/svg">
<path d="M31.2766 0H8.41383C4.13186 0 0.665039 3.615 0.665039 8.08V31.925C0.665039 36.385 4.13186 40 8.41383 40H31.2814C35.5586 40 39.0302 36.385 39.0302 31.92V8.08C39.0254 3.615 35.5586 0 31.2766 0Z" fill="url(#paint0_linear_2753_34333)"/>
<path d="M19.682 9.19007L20.4588 7.79007C20.9383 6.91507 22.0076 6.62007 22.8467 7.12007C23.6859 7.62007 23.9688 8.73507 23.4893 9.61007L16.0042 23.1201H21.4178C23.1728 23.1201 24.1558 25.2701 23.3934 26.7601H7.52176C6.55316 26.7601 5.77637 25.9501 5.77637 24.9401C5.77637 23.9301 6.55316 23.1201 7.52176 23.1201H11.9716L17.6681 12.8251L15.8891 9.60507C15.4096 8.73007 15.6925 7.62507 16.5317 7.11507C17.3708 6.61507 18.4305 6.91007 18.9196 7.78507L19.682 9.19007ZM12.9498 28.6351L11.2715 31.6701C10.792 32.5451 9.72269 32.8401 8.88356 32.3401C8.04442 31.8401 7.76152 30.7251 8.24102 29.8501L9.48773 27.6001C10.8975 27.1451 12.0435 27.4951 12.9498 28.6351ZM27.402 23.1301H31.9429C32.9115 23.1301 33.6883 23.9401 33.6883 24.9501C33.6883 25.9601 32.9115 26.7701 31.9429 26.7701H29.4207L31.123 29.8501C31.6025 30.7251 31.3196 31.8301 30.4804 32.3401C29.6413 32.8401 28.5816 32.5451 28.0925 31.6701C25.2251 26.4851 23.0721 22.6051 21.6432 20.0201C20.1807 17.3901 21.226 14.7501 22.2569 13.8551C23.403 15.9051 25.1148 19.0001 27.402 23.1301Z" fill="white"/>
<path d="M178.138 30.4701C176.776 30.4701 175.568 30.1501 174.513 29.5101C173.458 28.8501 172.624 27.9401 172.01 26.7801C171.415 25.6201 171.118 24.2501 171.118 22.6701C171.118 21.1101 171.415 19.7501 172.01 18.5901C172.605 17.4101 173.429 16.5001 174.484 15.8601C175.558 15.2001 176.795 14.8701 178.196 14.8701C179.577 14.8701 180.766 15.2001 181.763 15.8601C182.78 16.5001 183.557 17.3501 184.094 18.4101C184.631 19.4701 184.899 20.6101 184.899 21.8301C184.899 22.0501 184.89 22.2701 184.87 22.4901C184.87 22.7101 184.87 22.9601 184.87 23.2401H173.506C173.564 24.3801 173.813 25.3301 174.254 26.0901C174.714 26.8301 175.28 27.3901 175.952 27.7701C176.642 28.1501 177.371 28.3401 178.138 28.3401C179.135 28.3401 179.97 28.1001 180.641 27.6201C181.312 27.1401 181.802 26.4901 182.108 25.6701H184.496C184.113 27.0501 183.374 28.2001 182.281 29.1201C181.207 30.0201 179.826 30.4701 178.138 30.4701ZM178.138 17.0001C176.987 17.0001 175.961 17.3701 175.06 18.1101C174.177 18.8301 173.669 19.8901 173.535 21.2901H182.511C182.454 19.9501 182.013 18.9001 181.188 18.1401C180.363 17.3801 179.346 17.0001 178.138 17.0001Z" fill="#464646"/>
<path d="M161.229 30.1101V15.2301H163.416L163.617 18.0801C164.059 17.1001 164.73 16.3201 165.631 15.7401C166.533 15.1601 167.645 14.8701 168.969 14.8701V17.5101H168.307C167.463 17.5101 166.686 17.6701 165.977 17.9901C165.267 18.2901 164.701 18.8101 164.279 19.5501C163.857 20.2901 163.646 21.3101 163.646 22.6101V30.1101H161.229Z" fill="#464646"/>
<path d="M150.13 30.4701C148.787 30.4701 147.579 30.1501 146.505 29.5101C145.431 28.8701 144.577 27.9701 143.944 26.8101C143.33 25.6301 143.023 24.2501 143.023 22.6701C143.023 21.0901 143.34 19.7201 143.973 18.5601C144.606 17.3801 145.459 16.4701 146.533 15.8301C147.627 15.1901 148.845 14.8701 150.187 14.8701C151.53 14.8701 152.738 15.1901 153.812 15.8301C154.886 16.4701 155.73 17.3801 156.344 18.5601C156.977 19.7201 157.293 21.0901 157.293 22.6701C157.293 24.2501 156.977 25.6301 156.344 26.8101C155.711 27.9701 154.848 28.8701 153.755 29.5101C152.681 30.1501 151.472 30.4701 150.13 30.4701ZM150.13 28.3101C150.954 28.3101 151.722 28.1001 152.431 27.6801C153.141 27.2601 153.716 26.6301 154.158 25.7901C154.599 24.9501 154.819 23.9101 154.819 22.6701C154.819 21.4301 154.599 20.3901 154.158 19.5501C153.736 18.7101 153.17 18.0801 152.46 17.6601C151.75 17.2401 150.993 17.0301 150.187 17.0301C149.362 17.0301 148.595 17.2401 147.886 17.6601C147.176 18.0801 146.601 18.7101 146.159 19.5501C145.718 20.3901 145.498 21.4301 145.498 22.6701C145.498 23.9101 145.718 24.9501 146.159 25.7901C146.601 26.6301 147.166 27.2601 147.857 27.6801C148.567 28.1001 149.324 28.3101 150.13 28.3101Z" fill="#464646"/>
<path d="M137.959 30.1102C136.655 30.1102 135.628 29.7802 134.88 29.1202C134.132 28.4602 133.758 27.2702 133.758 25.5502V17.3602H131.284V15.2302H133.758L134.075 11.6602H136.175V15.2302H140.376V17.3602H136.175V25.5502C136.175 26.4902 136.357 27.1302 136.722 27.4702C137.086 27.7902 137.729 27.9502 138.649 27.9502H140.145V30.1102H137.959Z" fill="#464646"/>
<path d="M121.671 30.47C120.195 30.47 118.91 30.19 117.816 29.63C116.723 29.07 115.879 28.29 115.284 27.29C114.69 26.29 114.393 25.13 114.393 23.81H116.924C116.924 24.63 117.107 25.39 117.471 26.09C117.835 26.77 118.363 27.32 119.053 27.74C119.763 28.14 120.636 28.34 121.671 28.34C123.033 28.34 124.088 28 124.836 27.32C125.584 26.64 125.958 25.79 125.958 24.77C125.958 23.93 125.786 23.26 125.44 22.76C125.095 22.24 124.625 21.82 124.031 21.5C123.455 21.18 122.784 20.9 122.017 20.66C121.269 20.42 120.482 20.15 119.658 19.85C118.104 19.29 116.953 18.6 116.205 17.78C115.457 16.94 115.083 15.85 115.083 14.51C115.064 13.39 115.313 12.4 115.831 11.54C116.349 10.66 117.078 9.98 118.018 9.5C118.977 9 120.108 8.75 121.413 8.75C122.698 8.75 123.81 9 124.75 9.5C125.709 10 126.447 10.69 126.965 11.57C127.502 12.45 127.78 13.45 127.8 14.57H125.268C125.268 13.99 125.124 13.42 124.836 12.86C124.548 12.28 124.107 11.81 123.513 11.45C122.937 11.09 122.209 10.91 121.326 10.91C120.233 10.89 119.331 11.18 118.622 11.78C117.931 12.38 117.586 13.21 117.586 14.27C117.586 15.17 117.826 15.86 118.305 16.34C118.804 16.82 119.495 17.22 120.377 17.54C121.259 17.84 122.276 18.19 123.426 18.59C124.385 18.95 125.249 19.37 126.016 19.85C126.783 20.33 127.378 20.95 127.8 21.71C128.241 22.47 128.461 23.44 128.461 24.62C128.461 25.62 128.212 26.57 127.713 27.47C127.215 28.35 126.457 29.07 125.44 29.63C124.443 30.19 123.187 30.47 121.671 30.47Z" fill="#464646"/>
<path d="M89.2773 36.7101V15.2301H91.4639L91.6941 17.6901C92.1544 16.9701 92.8065 16.3201 93.6504 15.7401C94.5135 15.1601 95.6068 14.8701 96.9302 14.8701C98.3496 14.8701 99.5867 15.2101 100.642 15.8901C101.697 16.5701 102.512 17.5001 103.087 18.6801C103.682 19.8601 103.979 21.2001 103.979 22.7001C103.979 24.2001 103.682 25.5401 103.087 26.7201C102.512 27.8801 101.687 28.8001 100.613 29.4801C99.5579 30.1401 98.3208 30.4701 96.9015 30.4701C95.7315 30.4701 94.6862 30.2201 93.7655 29.7201C92.864 29.2201 92.1736 28.5201 91.6941 27.6201V36.7101H89.2773ZM96.6425 28.2801C97.6015 28.2801 98.4455 28.0501 99.1743 27.5901C99.9032 27.1101 100.479 26.4501 100.901 25.6101C101.323 24.7701 101.533 23.7901 101.533 22.6701C101.533 21.5501 101.323 20.5701 100.901 19.7301C100.479 18.8901 99.9032 18.2401 99.1743 17.7801C98.4455 17.3001 97.6015 17.0601 96.6425 17.0601C95.6835 17.0601 94.8396 17.3001 94.1108 17.7801C93.3819 18.2401 92.8065 18.8901 92.3845 19.7301C91.9626 20.5701 91.7516 21.5501 91.7516 22.6701C91.7516 23.7901 91.9626 24.7701 92.3845 25.6101C92.8065 26.4501 93.3819 27.1101 94.1108 27.5901C94.8396 28.0501 95.6835 28.2801 96.6425 28.2801Z" fill="#464646"/>
<path d="M70.6367 36.7101V15.2301H72.8233L73.0534 17.6901C73.5137 16.9701 74.1659 16.3201 75.0098 15.7401C75.8729 15.1601 76.9662 14.8701 78.2896 14.8701C79.7089 14.8701 80.9461 15.2101 82.001 15.8901C83.0559 16.5701 83.871 17.5001 84.4465 18.6801C85.041 19.8601 85.3383 21.2001 85.3383 22.7001C85.3383 24.2001 85.041 25.5401 84.4465 26.7201C83.871 27.8801 83.0463 28.8001 81.9722 29.4801C80.9173 30.1401 79.6802 30.4701 78.2608 30.4701C77.0909 30.4701 76.0455 30.2201 75.1249 29.7201C74.2234 29.2201 73.5329 28.5201 73.0534 27.6201V36.7101H70.6367ZM78.0019 28.2801C78.9609 28.2801 79.8048 28.0501 80.5337 27.5901C81.2625 27.1101 81.8379 26.4501 82.2599 25.6101C82.6819 24.7701 82.8929 23.7901 82.8929 22.6701C82.8929 21.5501 82.6819 20.5701 82.2599 19.7301C81.8379 18.8901 81.2625 18.2401 80.5337 17.7801C79.8048 17.3001 78.9609 17.0601 78.0019 17.0601C77.0429 17.0601 76.199 17.3001 75.4701 17.7801C74.7413 18.2401 74.1659 18.8901 73.7439 19.7301C73.3219 20.5701 73.111 21.5501 73.111 22.6701C73.111 23.7901 73.3219 24.7701 73.7439 25.6101C74.1659 26.4501 74.7413 27.1101 75.4701 27.5901C76.199 28.0501 77.0429 28.2801 78.0019 28.2801Z" fill="#464646"/>
<path d="M49.834 30.1101L57.2567 9.11011H59.8173L67.2112 30.1101H64.6507L62.8094 24.7101H54.2358L52.3658 30.1101H49.834ZM54.9551 22.6701H62.0901L58.5226 12.2901L54.9551 22.6701Z" fill="#464646"/>
<defs>
<linearGradient id="paint0_linear_2753_34333" x1="19.8476" y1="0" x2="19.8476" y2="40" gradientUnits="userSpaceOnUse">
<stop stop-color="#18BFFB"/>
<stop offset="1" stop-color="#2072F3"/>
</linearGradient>
</defs>
</svg>
