<svg width="208" height="20" viewBox="0 0 208 20" fill="none" xmlns="http://www.w3.org/2000/svg">
<g clip-path="url(#clip0_9468_17)">
<path d="M21.4122 0H0V20H21.4122V0Z" fill="#00B67A"/>
<path d="M44.6086 0H23.1964V20H44.6086V0Z" fill="#00B67A"/>
<path d="M67.805 0H46.3928V20H67.805V0Z" fill="#00B67A"/>
<path d="M91.0019 0H69.5897V20H91.0019V0Z" fill="#00B67A"/>
<path d="M114.198 0H92.7861V20H114.198V0Z" fill="#DCDCE5"/>
<path d="M103.492 0H92.7861V20H103.492V0Z" fill="#00B67A"/>
<path d="M10.7063 13.4789L13.9628 12.7079L15.3235 16.6247L10.7067 13.4789H10.7063ZM18.2004 8.41649H12.4681L10.7063 3.375L8.94443 8.41649H3.21167L7.85086 11.5414L6.08901 16.5829L10.7282 13.458L13.5832 11.5414L18.2 8.41649H18.2004ZM33.9027 13.4789L37.1592 12.7079L38.52 16.6247L33.9032 13.4789H33.9027ZM41.3969 8.41649H35.6646L33.9027 3.375L32.1409 8.41649H26.4086L31.0478 11.5414L29.2859 16.5829L33.9251 13.458L36.7801 11.5414L41.3969 8.41649V8.41649ZM57.0991 13.4789L60.3556 12.7079L61.7164 16.6247L57.0996 13.4789H57.0991ZM64.5933 8.41649H58.861L57.0991 3.375L55.3373 8.41649H49.605L54.2442 11.5414L52.4823 16.5829L57.1215 13.458L59.9765 11.5414L64.5933 8.41649V8.41649ZM80.2956 13.4789L83.5521 12.7079L84.9128 16.6247L80.296 13.4789H80.2956ZM87.7897 8.41649H82.0574L80.2956 3.375L78.5337 8.41649H72.8014L77.4406 11.5414L75.6788 16.5829L80.318 13.458L83.1729 11.5414L87.7897 8.41649V8.41649ZM103.492 13.4789L106.748 12.7079L108.109 16.6247L103.492 13.4789H103.492ZM110.986 8.41649H105.254L103.492 3.375L101.73 8.41649H95.9979L100.637 11.5414L98.8752 16.5829L103.514 13.458L106.369 11.5414L110.986 8.41649V8.41649Z" fill="white"/>
</g>
<g clip-path="url(#clip1_9468_17)">
<path d="M143.722 7.0874H152.52V8.62169H149.056V17.2707H147.157V8.62169H143.708L143.722 7.0874V7.0874ZM152.143 9.89799H153.766V11.3237H153.795C153.853 11.12 153.955 10.9299 154.1 10.7398C154.245 10.5497 154.419 10.3732 154.636 10.2239C154.839 10.0609 155.071 9.93873 155.332 9.84368C155.578 9.74864 155.839 9.69433 156.1 9.69433C156.303 9.69433 156.448 9.7079 156.52 9.7079C156.593 9.72148 156.68 9.73506 156.752 9.73506V11.2965C156.636 11.2693 156.506 11.2558 156.375 11.2422C156.245 11.2286 156.129 11.215 155.999 11.215C155.709 11.215 155.433 11.2693 155.172 11.378C154.912 11.4866 154.694 11.6495 154.491 11.8532C154.303 12.0704 154.143 12.3284 154.027 12.6407C153.911 12.953 153.853 13.3196 153.853 13.7269V17.23H152.114L152.143 9.89799V9.89799ZM164.724 17.2707H163.014V16.2388H162.985C162.767 16.619 162.448 16.9041 162.028 17.1349C161.608 17.3657 161.173 17.4744 160.738 17.4744C159.709 17.4744 158.955 17.2435 158.492 16.7547C158.028 16.2795 157.796 15.5463 157.796 14.5823V9.89799H159.535V14.4194C159.535 15.0711 159.666 15.5328 159.941 15.7907C160.202 16.0623 160.579 16.1981 161.057 16.1981C161.419 16.1981 161.724 16.1437 161.97 16.0351C162.216 15.9265 162.419 15.7907 162.564 15.6142C162.724 15.4377 162.825 15.2205 162.898 14.9761C162.97 14.7317 162.999 14.4601 162.999 14.175V9.89799H164.738V17.2707H164.724V17.2707ZM167.681 14.9082C167.739 15.3834 167.927 15.7093 168.26 15.9129C168.594 16.103 169 16.1981 169.463 16.1981C169.623 16.1981 169.811 16.1845 170.014 16.1573C170.217 16.1302 170.42 16.0894 170.594 16.0216C170.782 15.9537 170.927 15.8586 171.043 15.7228C171.159 15.5871 171.217 15.4241 171.203 15.2205C171.188 15.0168 171.116 14.8403 170.956 14.7045C170.797 14.5687 170.609 14.4737 170.377 14.3786C170.145 14.2972 169.869 14.2293 169.565 14.175C169.261 14.1207 168.956 14.0528 168.637 13.9849C168.318 13.917 168 13.8355 167.695 13.7405C167.391 13.6454 167.13 13.5232 166.884 13.3467C166.652 13.1838 166.449 12.9801 166.318 12.7222C166.173 12.4642 166.101 12.1655 166.101 11.7853C166.101 11.378 166.202 11.0521 166.42 10.7805C166.623 10.509 166.898 10.2917 167.217 10.1288C167.536 9.96588 167.898 9.84368 168.289 9.77579C168.681 9.7079 169.058 9.68075 169.406 9.68075C169.811 9.68075 170.203 9.72148 170.565 9.80295C170.927 9.88441 171.275 10.0066 171.565 10.1967C171.869 10.3732 172.116 10.6176 172.304 10.9027C172.507 11.1879 172.623 11.5409 172.681 11.9482H170.869C170.782 11.5545 170.594 11.2965 170.304 11.1607C170 11.0249 169.666 10.9571 169.275 10.9571C169.159 10.9571 169 10.9706 168.84 10.9842C168.666 11.0114 168.521 11.0385 168.362 11.0928C168.217 11.1471 168.087 11.2286 167.985 11.3237C167.884 11.4187 167.826 11.5545 167.826 11.7174C167.826 11.9211 167.898 12.0704 168.043 12.1926C168.188 12.3148 168.376 12.4099 168.623 12.5049C168.855 12.5864 169.13 12.6543 169.435 12.7086C169.739 12.7629 170.058 12.8308 170.377 12.8987C170.695 12.9666 171 13.048 171.304 13.1431C171.609 13.2381 171.884 13.3603 172.116 13.5368C172.348 13.6998 172.551 13.9034 172.696 14.1478C172.841 14.3922 172.913 14.7045 172.913 15.0575C172.913 15.492 172.812 15.8586 172.594 16.1709C172.377 16.4696 172.101 16.7276 171.768 16.9177C171.435 17.1078 171.043 17.2435 170.638 17.3386C170.217 17.4201 169.811 17.4744 169.406 17.4744C168.913 17.4744 168.449 17.4201 168.029 17.3114C167.608 17.2028 167.231 17.0399 166.927 16.8362C166.623 16.619 166.376 16.361 166.202 16.0351C166.028 15.7228 165.927 15.3427 165.912 14.8946H167.666V14.9082H167.681V14.9082ZM173.406 9.89799H174.725V7.67124H176.464V9.88442H178.029V11.0928H176.464V15.0304C176.464 15.2069 176.479 15.3427 176.493 15.4784C176.508 15.6006 176.551 15.7093 176.595 15.7907C176.653 15.8722 176.739 15.9401 176.841 15.9808C176.957 16.0216 177.102 16.0487 177.305 16.0487C177.421 16.0487 177.551 16.0487 177.667 16.0351C177.783 16.0215 177.914 16.008 178.029 15.9808V17.2435C177.841 17.2707 177.653 17.2843 177.464 17.2979C177.276 17.325 177.102 17.325 176.899 17.325C176.435 17.325 176.073 17.2843 175.797 17.2028C175.522 17.1213 175.305 16.9991 175.145 16.8498C174.986 16.6869 174.884 16.4968 174.826 16.266C174.768 16.0351 174.739 15.75 174.725 15.4513V11.1064H173.406V9.89799V9.89799ZM179.247 9.89799H180.885V10.9027H180.914C181.16 10.4683 181.494 10.1695 181.928 9.97946C182.363 9.78937 182.827 9.69433 183.349 9.69433C183.972 9.69433 184.508 9.78937 184.972 10.0066C185.436 10.2103 185.813 10.4818 186.117 10.8484C186.421 11.2015 186.653 11.6224 186.798 12.0976C186.943 12.5728 187.03 13.0888 187.03 13.6183C187.03 14.1478 186.958 14.5959 186.827 15.0575C186.682 15.5192 186.479 15.9401 186.204 16.2931C185.929 16.6461 185.581 16.9313 185.146 17.1485C184.711 17.3657 184.218 17.4744 183.639 17.4744C183.392 17.4744 183.131 17.4472 182.885 17.4065C182.639 17.3657 182.392 17.2979 182.16 17.2028C181.928 17.1078 181.711 16.9856 181.523 16.8362C181.32 16.6869 181.16 16.5103 181.03 16.3203H181.001V19.9998H179.261V9.89799H179.247V9.89799ZM185.32 13.5911C185.32 13.2653 185.276 12.9394 185.175 12.6271C185.088 12.3148 184.943 12.0433 184.755 11.7989C184.566 11.5545 184.334 11.3644 184.073 11.215C183.798 11.0657 183.479 10.9978 183.131 10.9978C182.407 10.9978 181.856 11.2286 181.479 11.7038C181.117 12.1791 180.928 12.8172 180.928 13.6047C180.928 13.9849 180.972 14.3243 181.073 14.6366C181.175 14.9489 181.305 15.2205 181.508 15.4513C181.696 15.6821 181.928 15.8586 182.204 15.9944C182.479 16.1302 182.783 16.1981 183.146 16.1981C183.552 16.1981 183.871 16.1166 184.146 15.9672C184.421 15.8179 184.639 15.6142 184.827 15.3834C185.001 15.139 185.132 14.8674 185.204 14.5552C185.276 14.2293 185.32 13.917 185.32 13.5911V13.5911ZM188.378 7.0874H190.117V8.62169H188.378V7.0874V7.0874ZM188.378 9.89799H190.117V17.2707H188.378V9.89799ZM191.668 7.0874H193.408V17.2707H191.668V7.0874ZM198.712 17.4744C198.089 17.4744 197.524 17.3793 197.031 17.1757C196.538 16.972 196.132 16.714 195.785 16.3746C195.451 16.0351 195.19 15.6142 195.016 15.139C194.843 14.6638 194.741 14.1342 194.741 13.5776C194.741 13.0209 194.828 12.5049 195.016 12.0297C195.19 11.5545 195.451 11.1471 195.785 10.7941C196.118 10.4547 196.538 10.1831 197.031 9.99304C197.524 9.80295 198.089 9.69433 198.712 9.69433C199.336 9.69433 199.901 9.78937 200.394 9.99304C200.887 10.1831 201.292 10.4547 201.64 10.7941C201.974 11.1336 202.234 11.5545 202.408 12.0297C202.582 12.5049 202.684 13.0209 202.684 13.5776C202.684 14.1342 202.597 14.6638 202.408 15.139C202.22 15.6142 201.974 16.0215 201.64 16.3746C201.307 16.714 200.887 16.9856 200.394 17.1757C199.901 17.3657 199.35 17.4744 198.712 17.4744ZM198.712 16.1845C199.089 16.1845 199.437 16.103 199.712 15.9537C200.002 15.8043 200.22 15.6006 200.408 15.3562C200.597 15.1118 200.727 14.8267 200.814 14.528C200.901 14.2157 200.944 13.9034 200.944 13.5776C200.944 13.2517 200.901 12.953 200.814 12.6407C200.727 12.3284 200.597 12.0569 200.408 11.8125C200.22 11.5681 199.988 11.378 199.712 11.2286C199.423 11.0793 199.089 10.9978 198.712 10.9978C198.336 10.9978 197.988 11.0793 197.712 11.2286C197.422 11.378 197.205 11.5816 197.017 11.8125C196.828 12.0569 196.698 12.3284 196.611 12.6407C196.524 12.953 196.48 13.2653 196.48 13.5776C196.48 13.8898 196.524 14.2157 196.611 14.528C196.698 14.8403 196.828 15.1118 197.017 15.3562C197.205 15.6006 197.437 15.8043 197.712 15.9537C198.002 16.1166 198.336 16.1845 198.712 16.1845ZM203.206 9.89799H204.525V7.67124H206.264V9.88442H207.829V11.0928H206.264V15.0304C206.264 15.2069 206.278 15.3427 206.293 15.4784C206.307 15.6006 206.351 15.7093 206.394 15.7907C206.452 15.8722 206.539 15.9401 206.641 15.9808C206.757 16.0216 206.902 16.0487 207.104 16.0487C207.22 16.0487 207.351 16.0487 207.467 16.0351C207.583 16.0215 207.713 16.008 207.829 15.9808V17.2435C207.641 17.2707 207.452 17.2843 207.264 17.2979C207.075 17.325 206.902 17.325 206.699 17.325C206.235 17.325 205.872 17.2843 205.597 17.2028C205.322 17.1213 205.104 16.9991 204.945 16.8498C204.785 16.6869 204.684 16.4968 204.626 16.266C204.568 16.0351 204.539 15.75 204.525 15.4513V11.1064H203.206V9.89799V9.89799Z" fill="white"/>
<path d="M141.693 7.08758H133.736L131.286 0L128.822 7.08758L120.865 7.074L127.3 11.4596L124.836 18.5472L131.272 14.1616L137.707 18.5472L135.258 11.4596L141.693 7.08758V7.08758Z" fill="#00B67A"/>
<path d="M135.808 13.0616L135.258 11.4595L131.286 14.1614L135.808 13.0616V13.0616Z" fill="#005128"/>
</g>
<defs>
<clipPath id="clip0_9468_17">
<rect width="114.198" height="20" fill="white"/>
</clipPath>
<clipPath id="clip1_9468_17">
<rect width="86.9641" height="20" fill="white" transform="translate(120.865)"/>
</clipPath>
</defs>
</svg>
