<svg width="204" height="40" viewBox="0 0 204 40" fill="none" xmlns="http://www.w3.org/2000/svg">
<g clip-path="url(#clip0_1501_20804)">
<path d="M199.988 16.8302L196.237 26.3832H196.125L192.211 16.8302H188.672L194.537 30.1844L191.186 37.6117H194.624L203.664 16.8302H199.988ZM173.48 8.90277H170.204V30.9347H173.48V8.90277ZM161.151 8.90277H153.274V30.9347H156.575V22.5945H161.164C165.027 22.7321 168.253 19.7061 168.391 15.8424C168.391 15.8174 168.391 15.7799 168.391 15.7549C168.316 11.8912 165.115 8.81524 161.239 8.90277C161.214 8.90277 161.176 8.90277 161.151 8.90277ZM161.239 19.5186H156.575V12.0162H161.251C163.327 12.0162 165.002 13.6918 165.002 15.7674C165.002 17.8431 163.327 19.5186 161.251 19.5186H161.239ZM181.558 16.3551C179.107 16.2176 176.806 17.543 175.693 19.7312L178.619 20.9815C179.207 19.8937 180.395 19.2685 181.62 19.381C183.346 19.206 184.896 20.4689 185.071 22.2069C185.071 22.2069 185.071 22.2069 185.071 22.2194V22.4445C184.021 21.8818 182.845 21.5817 181.658 21.5817C178.519 21.5817 175.318 23.3073 175.318 26.5833C175.318 29.5342 177.881 31.4348 180.782 31.4348C182.47 31.5473 184.071 30.7096 184.959 29.2841H185.084V30.9847H188.285V22.507C188.285 18.5933 185.359 16.4176 181.583 16.4176L181.558 16.3551ZM181.17 28.4339C180.095 28.4339 178.594 27.8837 178.594 26.5583C178.594 24.8578 180.457 24.2076 182.083 24.2076C183.133 24.1825 184.171 24.4326 185.084 24.9453C184.834 26.9209 183.158 28.4089 181.17 28.4339ZM62.6079 31.4098C56.1309 31.4348 50.8417 26.2457 50.7417 19.7687C50.8417 13.2916 56.1309 8.10252 62.6079 8.12753C65.6088 8.07751 68.4972 9.24037 70.6229 11.341L68.3597 13.5792C66.8217 12.0788 64.7586 11.241 62.6079 11.2535C57.9314 11.2535 54.1428 15.0422 54.1428 19.7186C54.1428 24.3951 57.9314 28.1838 62.6079 28.1838C64.8211 28.2713 66.9593 27.4211 68.5098 25.8456C69.5226 24.7452 70.1353 23.3323 70.2478 21.8443H62.6079V18.7558H73.3613C73.4738 19.406 73.5363 20.0813 73.5238 20.744C73.6364 23.5073 72.636 26.2082 70.7605 28.2463C68.6223 30.4095 65.6464 31.5598 62.6079 31.4098ZM90.154 23.9075C90.3166 28.0087 87.1406 31.4598 83.0393 31.6349C78.938 31.7974 75.4869 28.6214 75.3119 24.5201C75.3119 24.3201 75.3119 24.12 75.3119 23.9075C75.1493 19.8062 78.3253 16.3551 82.4266 16.18C86.5279 16.0175 89.979 19.1935 90.154 23.2948C90.154 23.4948 90.154 23.6949 90.154 23.9075ZM86.903 23.9075C87.1156 21.6067 85.4275 19.5561 83.1268 19.3435C80.8261 19.131 78.7755 20.819 78.5629 23.1197C78.5379 23.3823 78.5379 23.6449 78.5629 23.9075C78.3503 26.2082 80.0384 28.2588 82.3391 28.4714C84.6398 28.684 86.6904 26.9959 86.903 24.6952C86.928 24.4326 86.928 24.17 86.903 23.9075ZM106.784 23.9075C106.784 28.0087 103.471 31.3223 99.3694 31.3223C95.2681 31.3223 91.9546 28.0087 91.9546 23.9075C91.9546 19.8062 95.2681 16.4926 99.3694 16.4926C103.471 16.4926 106.784 19.8062 106.784 23.9075ZM103.546 23.9075C103.758 21.6067 102.07 19.5561 99.7695 19.3435C97.4688 19.131 95.4182 20.819 95.2056 23.1197C95.1806 23.3823 95.1806 23.6449 95.2056 23.9075C94.993 26.2082 96.6811 28.2588 98.9818 28.4714C101.282 28.684 103.333 26.9959 103.546 24.6952C103.571 24.4326 103.571 24.17 103.546 23.9075ZM123.014 16.8678V30.3345C123.014 35.8612 119.726 38.1369 115.85 38.1369C112.949 38.1619 110.31 36.4364 109.172 33.7605L112.011 32.5101C112.611 34.0731 114.086 35.1235 115.762 35.1735C118.263 35.1735 119.788 33.6355 119.788 30.7721V29.6968H119.663C118.675 30.8096 117.25 31.4223 115.762 31.4098C111.623 31.4098 108.26 28.0462 108.26 23.9075C108.26 19.7687 111.623 16.4051 115.762 16.4051C117.262 16.3676 118.7 16.9803 119.713 18.0806H119.838V16.8302H123.014V16.8678ZM120.101 23.945C120.288 21.6067 118.55 19.5686 116.225 19.381C116.175 19.381 116.137 19.381 116.087 19.381C113.686 19.4561 111.798 21.4692 111.886 23.8699C111.886 23.895 111.886 23.92 111.886 23.9575C111.773 26.3332 113.611 28.3588 116 28.4714C116.025 28.4714 116.062 28.4714 116.087 28.4714C118.4 28.3839 120.201 26.4332 120.113 24.12C120.113 24.07 120.113 24.0075 120.113 23.9575L120.101 23.945ZM128.804 8.92778V30.9472H125.503V8.92778H128.804ZM141.808 26.3832L144.383 28.0838C142.983 30.1719 140.645 31.4223 138.132 31.4098C134.118 31.4723 130.817 28.2588 130.767 24.2451C130.767 24.1325 130.767 24.02 130.767 23.9075C130.442 20.1063 133.255 16.7677 137.044 16.4301C140.245 16.155 143.208 18.1181 144.208 21.1816L144.546 22.0444L134.543 26.1832C135.181 27.6211 136.631 28.5214 138.194 28.4589C139.669 28.4339 141.045 27.6461 141.808 26.3832ZM133.918 23.6824L140.645 20.9065C140.107 19.8687 139.007 19.2435 137.844 19.3185C135.568 19.4186 133.818 21.3442 133.918 23.6074C133.918 23.6324 133.918 23.6574 133.918 23.6824Z" fill="#5F6368"/>
<path d="M17.6562 19.106L0.875977 36.6865C1.56369 39.0997 4.07698 40.5126 6.49023 39.8249C6.85284 39.7249 7.20295 39.5749 7.54056 39.3873L26.4215 28.6339L17.6562 19.106Z" fill="#EA4335"/>
<path d="M34.6242 16.1174L26.4592 11.4409L17.2688 19.5059L26.4967 28.6088L34.5992 23.9823C36.7749 22.8445 37.6127 20.1686 36.4748 17.993C36.0497 17.1927 35.3995 16.5425 34.5992 16.1174H34.6242Z" fill="#FBBC04"/>
<path d="M0.876121 3.32617C0.77609 3.70129 0.726074 4.08891 0.726074 4.47653V35.5362C0.726074 35.9239 0.77609 36.3115 0.876121 36.6866L18.2315 19.5562L0.876121 3.32617Z" fill="#4285F4"/>
<path d="M17.7813 20.0063L26.459 11.4411L7.60308 0.637699C6.89036 0.22507 6.09011 0 5.26485 0C3.22671 0 1.42615 1.35042 0.875977 3.31354L17.7813 20.0063Z" fill="#34A853"/>
</g>
<defs>
<clipPath id="clip0_1501_20804">
<rect width="202.938" height="40" fill="white" transform="translate(0.726074)"/>
</clipPath>
</defs>
</svg>
