<svg width="156" height="64" viewBox="0 0 156 64" fill="none" xmlns="http://www.w3.org/2000/svg">
<mask id="mask0_578_22291" style="mask-type:alpha" maskUnits="userSpaceOnUse" x="0" y="0" width="156" height="64">
<rect x="0.5" width="155" height="64" fill="#D9D9D9"/>
</mask>
<g mask="url(#mask0_578_22291)">
</g>
<g clip-path="url(#clip0_578_22291)">
<path d="M32.1409 52C42.9882 52 51.7817 43.0457 51.7817 32C51.7817 20.9543 42.9882 12 32.1409 12C21.2935 12 12.5 20.9543 12.5 32C12.5 43.0457 21.2935 52 32.1409 52Z" fill="#8E8E8E"/>
<path d="M64.6362 22.6723C65.2368 22.6723 67.8593 22.474 71.0495 24.9223C71.1926 25.0322 71.2207 25.24 71.1175 25.3881L69.5858 27.5737C69.4755 27.7314 69.262 27.7624 69.1119 27.6454C68.8304 27.4232 68.3495 27.0721 67.7866 26.7783C66.8811 26.3078 65.6778 25.9089 64.6386 25.9089C63.5994 25.9089 61.9316 26.2552 61.9316 27.9201C61.9316 29.2601 63.0951 29.7641 66.6841 30.6646C69.0204 31.2833 71.7462 32.425 71.7462 36.0701C71.7462 39.4237 69.0087 41.5377 65.2344 41.5377C62.959 41.5377 59.8392 40.6586 57.8594 38.6259C57.7398 38.5017 57.7351 38.3035 57.8477 38.1721L59.5695 36.1059C59.6914 35.9602 59.9096 35.9459 60.048 36.0772C60.7024 36.7007 62.6166 38.2796 65.225 38.2796C68.3331 38.2796 68.2088 36.3734 68.2088 36.0892C68.2088 35.4825 67.7772 34.6321 66.2431 34.1926C64.709 33.7531 60.862 33.0198 59.4217 31.3119C58.5373 30.2442 58.413 29.0595 58.413 28.1685C58.413 26.1573 59.6891 22.6675 64.6386 22.6675L64.6362 22.6723Z" fill="#8E8E8E"/>
<path d="M80.6672 27.0386C77.8969 27.0386 76.4003 29.1143 76.4003 29.1143V27.6763C76.4003 27.49 76.2525 27.3372 76.0672 27.3372H73.2242C73.0412 27.3372 72.8911 27.4876 72.8911 27.6763V45.0584C72.8911 45.2447 73.0389 45.3976 73.2242 45.3976H76.079C76.2619 45.3976 76.4121 45.2471 76.4121 45.0584V39.6434C76.4121 39.6434 77.8007 41.5399 80.8174 41.5399C83.21 41.5399 87.0664 39.5837 87.0664 34.3478C87.0664 29.1119 83.4399 27.0386 80.6696 27.0386H80.6672ZM79.9283 38.4491C77.9931 38.4491 76.3511 36.7364 76.3511 34.2881C76.3511 32.7952 77.2706 30.1868 79.8884 30.1868C82.5063 30.1868 83.5056 32.3366 83.5056 34.2881C83.5056 36.2396 82.45 38.4491 79.9283 38.4491Z" fill="#8E8E8E"/>
<path d="M95.274 27.0386C90.7983 27.0386 88.021 30.7863 88.021 34.3191C88.021 38.1911 90.9719 41.5758 95.3022 41.5758C99.6324 41.5758 102.583 38.0932 102.583 34.3191C102.583 30.5451 99.7497 27.0386 95.2717 27.0386H95.274ZM95.3022 38.4491C93.4748 38.4491 91.481 36.8917 91.481 34.3072C91.481 31.7227 93.2801 30.1892 95.3022 30.1892C96.855 30.1892 99.0647 31.4981 99.0647 34.3072C99.0647 37.1162 97.1295 38.4491 95.3022 38.4491Z" fill="#8E8E8E"/>
<path d="M111.537 30.1081V27.6406C111.537 27.4543 111.389 27.3014 111.204 27.3014H107.96V23.9573C107.96 23.771 107.812 23.6182 107.627 23.6182H104.831C104.648 23.6182 104.498 23.7686 104.498 23.9573V27.3014H103.13C102.947 27.3014 102.797 27.4519 102.797 27.6406V30.1081C102.797 30.2944 102.945 30.4473 103.13 30.4473H104.498V37.434C104.498 39.0057 105.201 41.4947 108.269 41.4947C109.682 41.4947 110.887 40.9907 111.342 40.7757C111.46 40.7208 111.535 40.6013 111.535 40.4676V38.0503C111.535 37.8329 111.295 37.7015 111.12 37.8257C110.798 38.0503 110.275 38.2891 109.501 38.2891C108.035 38.2891 107.957 37.274 107.957 36.5574V30.4473H111.202C111.385 30.4473 111.535 30.2968 111.535 30.1081H111.537Z" fill="#8E8E8E"/>
<path d="M114.715 25.6079C115.909 25.6079 116.876 24.6229 116.876 23.4079C116.876 22.1929 115.909 21.208 114.715 21.208C113.522 21.208 112.555 22.1929 112.555 23.4079C112.555 24.6229 113.522 25.6079 114.715 25.6079Z" fill="#8E8E8E"/>
<path d="M116.109 27.3018H113.31C113.126 27.3018 112.977 27.4536 112.977 27.6409V40.917C112.977 41.1043 113.126 41.2561 113.31 41.2561H116.109C116.293 41.2561 116.442 41.1043 116.442 40.917V27.6409C116.442 27.4536 116.293 27.3018 116.109 27.3018Z" fill="#8E8E8E"/>
<path d="M119.534 30.4472H118.185C118.002 30.4472 117.852 30.2967 117.852 30.108V27.6406C117.852 27.4542 118 27.3014 118.185 27.3014H119.534V26.4056C119.534 25.8085 119.632 22.0464 123.775 22.0464C125.827 22.0464 126.496 22.5146 126.496 22.5146V25.0513C126.496 25.3045 126.407 25.5147 126.144 25.4096C125.881 25.3045 125.102 25.0967 124.474 25.0967C123.845 25.0967 122.977 25.4693 122.977 26.6039V27.3014H128.056C128.194 27.3014 128.316 27.3874 128.365 27.5187L131.919 36.8774L135.112 27.5498C135.159 27.4136 135.285 27.3229 135.426 27.3229H138.548C138.696 27.3229 138.799 27.4734 138.745 27.6119C138.013 29.5419 133.864 40.4747 133.329 41.8625C132.743 43.3864 131.746 45.4597 128.886 45.4597C127.228 45.4597 126.158 44.8936 125.712 44.5974C125.574 44.5043 125.522 44.3228 125.593 44.1699L126.611 41.9461C126.653 41.8529 126.766 41.8171 126.852 41.872C127.143 42.0536 127.807 42.4071 128.579 42.4071C129.714 42.4071 130.221 41.0408 130.221 41.0408L125.867 30.4472H123.001V40.9428C123.001 41.1292 122.853 41.282 122.668 41.282H119.857C119.674 41.282 119.524 41.1292 119.524 40.9428L119.531 30.4472H119.534Z" fill="#8E8E8E"/>
<path d="M140.453 28.269H141.49C141.778 28.269 142.001 28.3526 142.151 28.5031C142.278 28.6321 142.346 28.8137 142.346 29.031V29.0382C142.346 29.4108 142.149 29.6449 141.86 29.7548L142.414 30.5812H141.83L141.344 29.8408H140.953V30.5812H140.453V28.269ZM141.459 29.3917C141.703 29.3917 141.842 29.2603 141.842 29.0645V29.0573C141.842 28.8399 141.691 28.7277 141.45 28.7277H140.953V29.3917H141.459Z" fill="#8E8E8E"/>
<path d="M141.358 31.6608C140.176 31.6608 139.214 30.6815 139.214 29.4776C139.214 28.2738 140.176 27.2944 141.358 27.2944C142.541 27.2944 143.502 28.2738 143.502 29.4776C143.502 30.6815 142.541 31.6608 141.358 31.6608ZM141.358 27.5357C140.305 27.5357 139.449 28.4075 139.449 29.48C139.449 30.5525 140.305 31.4244 141.358 31.4244C142.412 31.4244 143.268 30.5525 143.268 29.48C143.268 28.4075 142.412 27.5357 141.358 27.5357Z" fill="#8E8E8E"/>
<path d="M40.0272 41.514C39.802 41.514 39.5721 41.4543 39.3634 41.3253C31.6295 36.5886 22.46 39.3284 22.3685 39.357C21.6882 39.5672 20.9658 39.1755 20.7593 38.4804C20.5529 37.7853 20.9353 37.0544 21.6155 36.8418C22.0331 36.7128 31.9532 33.7199 40.6934 39.0728C41.3033 39.4478 41.5003 40.2552 41.1344 40.8762C40.8928 41.2871 40.4659 41.514 40.0272 41.514Z" fill="white"/>
<path d="M42.2486 36.1204C41.9905 36.1204 41.7302 36.0535 41.4909 35.9125C31.7749 30.2228 21.9861 33.5359 21.8876 33.5693C21.09 33.8464 20.2244 33.4164 19.95 32.6043C19.6779 31.7922 20.1025 30.9108 20.8977 30.6313C21.3504 30.4736 32.1056 26.8358 43.0086 33.2206C43.7381 33.6481 43.9891 34.5964 43.5692 35.3417C43.2877 35.8409 42.774 36.1204 42.2462 36.1204H42.2486Z" fill="white"/>
<path d="M44.6625 30.0005C44.3693 30.0005 44.069 29.9289 43.7922 29.7808C32.5913 23.7901 21.0878 27.3778 20.9729 27.4136C19.9853 27.7313 18.9297 27.1724 18.6178 26.1668C18.3058 25.1612 18.8547 24.0863 19.8422 23.7686C20.3724 23.599 32.9666 19.6745 45.5374 26.3961C46.4546 26.8857 46.8088 28.0418 46.3256 28.9758C45.9902 29.6255 45.338 29.9981 44.6625 29.9981V30.0005Z" fill="white"/>
</g>
<defs>
<clipPath id="clip0_578_22291">
<rect width="131" height="40" fill="white" transform="translate(12.5 12)"/>
</clipPath>
</defs>
</svg>
