<svg width="67" height="64" viewBox="0 0 67 64" fill="none" xmlns="http://www.w3.org/2000/svg">
<mask id="mask0_578_22347" style="mask-type:alpha" maskUnits="userSpaceOnUse" x="0" y="0" width="67" height="64">
<rect x="0.5" width="66" height="64" fill="#D9D9D9"/>
</mask>
<g mask="url(#mask0_578_22347)">
</g>
<g clip-path="url(#clip0_578_22347)">
<path fill-rule="evenodd" clip-rule="evenodd" d="M28.0072 12C28.7819 12.0026 29.1897 12.6109 29.3349 12.8102C29.4037 13.0121 29.4598 13.2166 29.5286 13.6307C29.5388 13.715 29.5439 13.7661 29.5439 13.8505C29.5439 14.1904 29.4623 14.3821 29.3375 14.699C29.2279 14.9725 29.182 15.1438 28.9807 15.361C28.6902 15.678 28.4838 15.7725 28.3971 15.8875C28.3589 15.9412 28.0582 16.2198 27.9715 16.3476C27.8849 16.4754 27.5485 17.0019 27.4134 17.2907C27.3013 17.5259 27.314 17.9195 26.919 18.4665C26.7585 18.6914 26.6209 18.8013 26.5342 19.0645C26.4476 19.3304 26.4501 19.5042 26.31 19.7444C26.0526 20.1815 25.813 20.3706 25.6015 20.8281C25.3977 21.2703 25.3875 21.5591 25.2524 22.0243C25.1071 22.5125 24.7733 22.7042 24.7223 23.2077C24.6943 23.4428 24.7504 23.5834 24.7223 23.8211C24.6433 24.5444 24.1439 24.8026 23.7871 25.4364C23.6571 25.6716 23.6571 25.8454 23.6138 26.1137C23.5552 26.4895 23.4915 26.6939 23.3742 27.0543C23.1729 27.6626 23.1908 28.0435 23.071 28.6696C22.992 29.0812 22.9461 29.3189 22.8773 29.7304C22.8442 29.945 22.7168 30.0524 22.7168 30.2722V30.4818C22.7168 30.6249 22.6301 30.6939 22.6225 30.8396C22.597 31.1642 22.5384 31.3431 22.495 31.6626C22.2759 33.2831 21.9752 34.1546 21.5853 35.7419C21.4426 36.3144 21.4477 36.6569 21.3151 37.2294C21.2158 37.6562 21.124 37.8939 21.0909 38.331C21.0654 38.6786 21.0679 38.8728 21.045 39.2204C21.017 39.6192 21.0628 39.8466 21.0628 40.2479C21.0628 40.478 21.045 40.6109 21.017 40.8383C20.8539 42.1444 20.5685 43.1003 20.5404 44.1866V44.8997L20.4308 45.9348V46.1112C20.4334 46.6607 19.9288 47.1974 19.4421 47.1974C18.7795 47.1974 18.568 46.4997 18.4609 45.8045C18.3947 45.3674 18.3233 45.1144 18.2622 44.6748C18.229 44.4243 18.1093 44.3144 18.0532 44.0716C18.0354 43.9872 18.0405 43.9361 18.0303 43.862C18.0175 43.7879 17.7627 42.6198 17.5665 41.8351C17.4034 41.1859 17.2275 39.977 17.1995 39.9489C17.1664 39.9157 17.0823 39.4454 17.044 38.9853C17.0211 38.7144 16.9217 38.4256 16.9013 38.3054C16.8835 38.1725 16.9345 38.0958 16.9115 37.9629C16.8504 37.5974 16.83 37.3853 16.7484 37.0249C16.6669 36.6799 16.6236 36.4958 16.5675 36.1329V35.9872C16.5216 35.3508 16.3203 34.607 16.2082 33.7201C16.1572 33.3214 16.1776 33.0863 16.1419 32.6875C16.1113 32.3681 16.0884 31.9361 15.938 31.8773C15.7342 31.7981 15.6679 32.092 15.5915 32.2479C15.4233 32.5853 15.3264 32.7719 15.1863 33.122C14.9875 33.6256 14.9187 33.9246 14.6919 34.4153C14.4396 34.9597 14.3478 35.2843 14.1185 35.8415C13.9401 36.2786 13.6521 36.6722 13.2367 36.6824C12.8851 36.6901 12.5257 36.299 12.5079 35.9719C12.4901 35.7112 12.6277 35.1284 12.8035 34.653C12.9896 34.1546 13.1297 33.7636 13.2393 33.3572C13.354 32.9252 13.4253 32.8026 13.5426 32.3425C13.6929 31.7444 13.9248 31.3482 14.0879 30.7527C14.2816 30.0524 14.4702 29.7304 14.6995 29.0403C14.8066 28.7157 14.883 28.4831 14.9696 28.1508C15.013 27.9949 15.1735 27.5246 15.2755 27.1157C15.3519 26.7962 15.4131 26.4562 15.4997 26.3054C15.6679 26.0498 15.9559 25.9859 16.2642 25.9885C16.9141 25.9885 17.3498 26.3284 17.3575 26.9725C17.3626 27.4019 17.2989 27.9105 17.3804 28.3476C17.3855 28.6441 17.4288 28.5265 17.4747 28.8179C17.6531 29.9578 17.7321 30.1035 17.8238 31.0006C17.936 31.5195 18.0175 32.4524 18.0175 32.4524C18.0175 32.8179 18.1526 33.4466 18.2367 33.8019C18.3157 34.1521 18.2341 34.2901 18.3616 34.8371C18.4584 35.2588 18.5196 35.793 18.5323 35.9361C18.545 36.1227 18.5909 36.4754 18.624 36.6569C18.6444 36.7898 18.6725 37.0786 18.7591 37.5284C18.861 37.8351 18.8279 38.0907 18.9706 38.4204C19.0063 38.5074 19.0573 38.6019 19.1541 38.6019C19.2357 38.6019 19.3121 38.4767 19.3682 38.3668C19.5568 38.0089 19.5415 37.784 19.6791 37.4032C19.8524 36.9252 19.9263 36.6058 20.0002 36.1406C20.125 35.6064 20.255 34.5917 20.4946 33.6179C20.7392 32.6339 20.8335 32.069 21.0221 31.0773C21.152 30.3974 21.2922 29.9885 21.4094 29.3444C21.4782 29.0377 21.5674 28.869 21.5674 28.5521C21.5929 28.3706 21.6464 28.2556 21.6796 28.0665C21.807 27.3917 21.9242 26.9112 21.9828 26.3335V26.1751C22.0134 26.055 22.0567 25.7738 22.2071 25.4773C22.3651 24.9968 22.5154 24.7412 22.7856 24.3144C23.1857 23.678 23.127 23.1872 23.364 22.4716C23.3972 22.4179 23.5756 22.0243 23.6138 21.7176C23.652 21.6792 23.7514 21.462 23.7922 21.2089C23.8839 21.1042 24.2738 19.453 24.549 18.7859C24.5618 18.6224 24.7019 18.4153 24.7759 18.1853C24.8421 17.9655 25.232 16.9687 25.4129 16.3604C25.5659 15.8671 25.5174 15.5527 25.7188 15.0824C25.9354 14.5789 26.0679 14.0166 26.1189 13.7406C26.2437 13.4313 26.3635 13.2728 26.5546 12.9968C26.8299 12.6006 27.0057 12.345 27.4517 12.1687C27.6606 12.0895 27.8033 12 28.0225 12L28.0072 12ZM41.1696 20.138C41.6615 20.138 42.1584 20.4703 42.1406 20.961C42.1227 21.3546 42.0004 21.4339 41.9163 21.5744C41.7838 21.7942 41.8348 22.1623 41.0855 22.2364C40.6905 22.2364 40.2038 21.7815 40.2038 21.2703C40.2038 20.6927 40.5937 20.1355 41.1696 20.1355V20.138ZM46.0371 21.8249C46.7226 21.8249 47.0692 22.5022 47.0513 23.2511C47.0513 23.3201 47.0258 23.3585 47.0258 23.43C47.0258 23.6192 47.0539 23.7265 47.0539 23.9157C47.0539 24.092 46.9927 24.5623 46.9927 24.5623C46.9927 24.9278 46.8831 25.1272 46.8831 25.4927C46.8831 25.5949 46.9137 25.6562 46.9137 25.7585C46.9137 25.9681 46.8831 26.0856 46.8653 26.2927C46.822 26.8064 47.1711 26.8396 47.2858 27.0748C47.5304 27.1898 47.6527 27.4019 47.9331 27.4019C48.0605 27.4019 48.4555 27.2358 48.5625 27.2C49.0747 26.9725 49.3729 26.8498 49.8673 26.5866C50.6318 26.1827 50.9478 25.8556 51.6945 25.3853C52.1863 25.0684 52.645 24.7565 53.2312 24.7591C53.7179 24.7591 54.1715 25.122 54.3091 25.4594C54.3728 25.623 54.4671 25.8326 54.4671 26.0473C54.4671 26.1265 54.5003 26.1674 54.5003 26.2415C54.5003 26.354 54.4977 26.4204 54.485 26.5329C54.4493 26.8498 54.4569 27.0466 54.3423 27.3406C54.2225 27.6473 54.0186 27.7572 53.7459 27.9387C53.4427 28.1457 53.1955 28.2454 52.826 28.2454H52.6323C52.3724 28.2454 52.2577 28.1636 51.9977 28.1636C51.5875 28.1636 51.3377 28.3297 50.9733 28.5137C50.5375 28.7284 50.0431 29.0121 49.8928 29.0837C49.4672 29.2831 48.5956 29.7482 47.798 30.2262C46.1594 31.2077 45.0279 31.7316 43.4403 32.7872C42.8261 33.1987 42.6579 33.3981 42.0055 33.7406C41.6054 33.9553 41.3276 33.9987 40.9428 34.2415C40.2904 34.653 39.9413 34.9419 39.4087 35.5042C38.9398 35.9029 38.267 36.5981 37.6962 36.8895C37.1687 37.1604 36.5622 37.6613 36.185 38.1163C36.1085 38.2109 35.739 38.4486 35.6881 39.0058L35.8078 40.5393C35.8078 40.8307 35.6728 41.0224 35.6931 41.3674L35.711 42.4486C35.711 42.855 35.8486 42.8958 35.8486 43.2358L35.8613 43.6677C35.8613 44.1764 36.0627 44.4422 36.0703 44.9482C36.0219 45.4978 36.078 45.738 36.0907 46.2594C36.106 46.7681 36.1799 47.0773 36.3048 47.5681C36.394 47.9361 36.3634 48.138 36.5239 48.4754C36.7558 48.9789 36.8603 49.2601 37.1075 49.7585C37.2731 50.0907 37.3751 50.3642 37.3751 50.7374C37.3751 51.4633 36.7966 51.9157 36.0219 51.9974C35.9531 52.0051 35.3593 52.0077 35.1147 51.8466C34.8114 51.6371 34.7273 51.2435 34.7095 50.878C34.6865 50.3693 34.6993 50.1802 34.6152 49.6613C34.6203 49.393 34.5515 49.2447 34.4801 48.9917C34.3272 48.4141 34.2176 48.0818 34.2049 47.4837C34.1896 46.7169 34.2508 46.2824 34.2508 45.5131C34.2176 45.0045 34.1794 44.7182 34.1182 44.2147C34.0545 43.7163 33.9577 43.4249 33.8991 42.9291C33.7971 42.0882 33.7971 41.6179 33.7487 40.7719C33.7334 40.5649 33.7334 40.455 33.7131 40.2479C33.7105 39.9923 33.6009 39.8722 33.4327 39.8696C33.0861 39.8696 32.9383 40.1252 32.6376 40.2965C32.2197 40.5316 32.0031 40.7565 31.6514 41.0812C30.9379 41.6077 30.6397 41.9093 30.0612 42.5406C29.6815 42.9546 29.5006 43.2358 29.0801 43.6064C28.7411 43.9054 28.5194 44.0511 28.1932 44.3655C27.9257 44.6211 27.8339 44.8281 27.63 45.1425C27.4466 45.4211 27.2707 45.5335 27.0184 45.7534C26.1036 46.561 25.9252 46.5304 24.7962 47.9668C24.4649 48.3885 24.2203 48.4473 24.1362 48.5853C24.1184 48.6134 23.7463 48.9227 23.6087 49.0556C23.4227 49.2422 23.1372 49.5182 22.9741 49.646C22.6148 49.9374 22.4823 50.1955 22.1357 50.5048C21.7407 50.8498 21.4935 51.062 20.9915 51.2307C20.757 51.3074 20.6678 51.3917 20.4181 51.3917C19.9033 51.3917 19.5542 50.9035 19.5517 50.3872C19.5517 50.0601 19.7148 49.9374 19.9059 49.6767C20.2779 49.1706 20.5302 48.9073 21.0017 48.4984C21.7738 47.8185 22.0465 47.2435 22.9028 46.6709C23.2009 46.4716 23.9476 46.0575 24.1515 45.9016C24.4981 45.6307 24.8039 45.3342 25.0791 44.9917C25.1989 44.8358 25.3339 44.7974 25.4486 44.6364C25.5709 44.4652 25.6117 44.3399 25.7544 44.184C26.0781 43.8313 26.3253 43.6856 26.7203 43.4096C27.2325 43.0492 27.5256 42.8907 28.0098 42.492C28.3563 42.2109 28.5067 41.9655 28.7819 41.6179C29.3298 40.9329 29.8446 40.7489 30.5556 40.23C30.8869 39.9898 30.9914 39.7572 31.2488 39.4377C31.3889 39.2613 31.8604 38.6556 32.3293 38.2415C32.6427 37.9655 32.8339 37.8224 33.1499 37.5463C33.6952 37.0735 33.8863 37.2447 33.8736 36.5214C33.8736 36.3962 33.9067 36.2224 33.7207 36.2377C33.5474 36.253 33.5015 36.3987 33.3767 36.5112C33.1091 36.7489 32.9434 36.8665 32.5867 36.8613C31.8578 36.8486 31.394 36.1943 31.3736 36.1508C31.1672 35.7419 30.8334 34.4971 30.8206 34.1137C30.8206 34.1137 30.7977 33.5974 30.8206 33.3035C30.8487 32.9355 30.943 32.2633 31.1723 31.862C31.2972 31.6422 31.4119 30.7655 31.5648 29.9578C31.6208 29.6639 31.7839 29.3649 31.8782 29.0812C32.0133 28.6696 32.0795 28.4192 32.3267 28.0639C32.7651 27.4377 33.0046 26.7297 33.7691 26.7323C33.9399 26.7323 34.0189 26.7757 34.1718 26.8498C34.2686 26.9035 34.3807 26.9214 34.4393 27.0134C34.4929 27.0978 34.4419 27.1719 34.5234 27.2332C34.6661 27.3457 34.7324 27.5757 34.7324 27.8032C34.7324 27.9335 34.7324 28.0102 34.7171 28.138C34.6585 28.6543 34.3476 28.8639 34.024 29.2677C33.7105 29.6639 33.6341 29.7917 33.4353 30.2569C33.2747 30.6351 33.234 31.0262 33.155 31.4326C33.0607 31.9105 32.9791 32.3348 32.9485 32.6645C32.9358 32.7693 32.9256 32.8588 32.9256 32.9661C32.9256 33.0863 33.0148 33.3086 33.1346 33.3086C33.3231 33.3086 33.4939 33.0812 33.5576 32.9022C33.7105 32.4856 33.8277 32.2786 33.9322 31.8466C34.0851 31.2281 34.1871 30.9546 34.4266 30.4307C34.7248 29.7815 34.7579 29.37 34.9312 28.8383C35.1401 28.1994 35.3211 27.6064 35.9964 27.6115C36.2105 27.6115 36.3532 27.6115 36.5392 27.7214C36.9622 27.9565 37.0667 28.3604 37.0667 28.8435C37.0616 28.9917 37.0591 29.0786 37.0438 29.2268C36.8883 30.676 36.529 31.4556 36.4092 32.915C36.3914 33.1195 36.4092 33.2422 36.3914 33.4492C36.3608 33.8147 36.2767 34.0115 36.2793 34.3821C36.2793 34.5457 36.315 34.6377 36.3634 34.7936C36.3863 34.8754 36.4143 34.9725 36.501 34.9725C36.6692 34.9725 36.7405 34.8524 36.8807 34.7629C37.1534 34.5917 37.3369 34.5329 37.6044 34.3566C38.0198 34.0831 38.2874 33.9732 38.685 33.6818C39.0927 33.3827 39.5106 32.9201 39.9337 32.6466C40.3491 32.3783 40.4 32.4473 40.8434 32.1661C41.3812 31.8236 41.7073 31.6473 42.2145 31.2639C42.5203 31.0288 42.5305 30.8652 42.9713 30.6173C43.3944 30.377 43.639 30.2466 44.0519 29.9885C44.271 29.8505 44.3832 29.7431 44.6151 29.6332C44.8087 29.5412 45.0024 29.4543 45.0024 29.2371C45.0024 29.0224 44.8674 28.8971 44.7578 28.7131C44.5998 28.4473 44.5717 28.3042 44.5692 27.9974C44.5692 27.8441 44.5641 27.7291 44.587 27.5808C44.6839 26.9827 44.9158 26.6658 44.9132 26.0601L44.9311 25.8633C44.903 25.8403 44.8877 25.8147 44.8495 25.8147C44.7654 25.8147 44.7144 25.9246 44.6635 25.9885C44.508 26.1674 44.4188 26.2799 44.2685 26.4639C44.0672 26.7042 43.9372 26.8319 43.8021 27.1105C43.7231 27.2639 43.7359 27.3712 43.6747 27.5323C43.5371 27.8799 43.4352 28.0869 43.3205 28.4447C43.0045 29.4032 43.0249 30.6709 42.0183 30.6684C41.3557 30.6684 40.818 30.1393 40.8154 29.4748C40.8154 29.0914 40.925 28.5086 40.9709 28.4652C41.134 28.3272 41.004 27.9617 41.0983 27.8773C41.1773 27.8109 41.2079 27.476 41.2079 27.1463C41.2079 26.993 41.2512 26.9035 41.2512 26.7527L41.269 26.5073C41.269 26.2313 41.3557 26.0856 41.3964 25.8147C41.478 25.2626 41.6207 25.1297 41.6666 24.9712C41.6921 24.8792 41.6844 24.8358 41.7175 24.7463C41.8959 24.2454 41.8552 23.9489 42.3419 23.5348C42.5177 23.361 42.6273 23.1744 42.8745 23.1744C43.4454 23.1744 43.6033 23.5016 43.7486 23.4888C44.0162 23.4607 44.1054 23.2562 44.294 23.0696C44.8674 22.515 45.2369 21.8428 46.0422 21.8428L46.0371 21.8249ZM39.661 25.3572C40.2038 25.3572 40.7441 25.5591 40.7288 26.2569C40.7211 26.6709 40.5071 26.8703 40.3618 27.2511C40.2395 27.5681 40.3032 27.7802 40.2191 28.1073C40.0891 28.5955 39.8853 28.5444 39.9133 29.3674C39.9235 29.9859 39.9209 30.3361 39.9005 30.9521C39.8776 31.5476 39.3883 31.9668 38.7945 31.9744C38.2772 31.9847 37.7497 31.3687 37.7522 30.8524C37.7522 30.4818 37.8567 30.2824 37.8797 29.9144C37.8975 29.5923 37.872 29.4109 37.895 29.0888C37.9281 28.5419 38.0759 28.2505 38.2466 27.7291C38.3307 27.4709 38.3256 27.3022 38.425 27.0492C38.5652 26.6786 38.606 26.469 38.8251 26.1112C38.9194 25.7073 39.2227 25.3495 39.6635 25.3521L39.661 25.3572ZM24.837 27.2818C25.1632 27.2818 25.3977 27.4428 25.5684 27.7265C25.7366 28.0051 25.8768 28.1789 25.8768 28.5035C25.8768 28.5623 25.8589 28.593 25.8589 28.6492C25.8615 29.2089 25.3951 29.6511 24.837 29.6511C24.2815 29.646 23.8737 29.076 23.8763 28.5853C23.8763 28.3911 23.996 28.2658 24.0164 28.0511C24.0699 27.5476 24.391 27.2767 24.837 27.2792V27.2818ZM28.9221 28.7923C29.4929 28.7923 29.7478 29.2677 30.0281 29.7661C30.3033 30.2518 30.6117 30.515 30.6117 31.0696C30.6117 31.6243 30.2498 31.9054 29.8217 32.2607C29.5796 32.4626 29.368 32.4217 29.0495 32.5163C28.9042 32.5597 28.8737 32.7591 28.8558 32.9355C28.8227 33.2575 28.7972 33.439 28.7921 33.761C28.7794 34.2978 28.7972 34.6019 28.7998 35.1361C28.7437 35.4326 28.7921 35.6345 28.6545 35.8978C28.4328 36.3195 28.0811 36.5291 27.6046 36.5265C27.0516 36.5265 26.5776 36.0869 26.5878 35.5297C26.5878 35.3636 26.6591 34.8652 26.6515 34.4358C26.6362 33.7866 26.5852 33.4185 26.5827 32.7693C26.5827 32.4447 26.7254 32.2709 26.7254 31.9438V31.6703C26.7177 31.4326 26.9496 31.2179 27.1917 31.0236C27.5383 30.745 27.6836 30.4358 27.8467 30.0192C28.1168 29.3316 28.2646 28.7923 28.9246 28.7923H28.9221ZM24.8396 31.361C25.1173 31.3636 25.3085 31.4633 25.4716 31.6856C25.7366 32.046 25.8997 32.3118 25.9022 32.7565C25.9022 32.8537 25.8946 32.9048 25.8869 33.0019C25.8436 33.3674 25.7264 33.5642 25.5327 33.8735C25.4104 34.0703 25.4079 34.2236 25.311 34.4383C25.1275 34.8294 25.0205 35.1949 25.0052 35.5067C24.9874 36.1508 24.9772 36.5137 24.9925 37.1578C25.0001 37.4799 25.074 37.6562 25.074 37.9757C25.0766 38.6454 24.6867 39.3227 24.019 39.3227C23.3589 39.3227 22.7295 38.4486 22.7626 37.5259C22.7779 37.1936 22.8314 37.0096 22.89 36.685C22.9894 36.1738 23.0684 35.5962 23.1602 35.3738C23.2876 35.0824 23.2799 34.9776 23.3029 34.8856L23.3793 34.3566C23.3793 34.1393 23.4634 34.0958 23.4991 33.8837C23.573 33.4288 23.624 33.1757 23.7692 32.7361C23.8559 32.4652 23.9808 32.3399 24.075 32.0741C24.2127 31.6907 24.4344 31.361 24.8396 31.361Z" fill="#8E8E8E"/>
</g>
<defs>
<clipPath id="clip0_578_22347">
<rect width="42" height="40" fill="white" transform="translate(12.5 12)"/>
</clipPath>
</defs>
</svg>
